####
#
# OBJ File Generated by Meshlab
#
####
# Object player2.obj
#
# Vertices: 500
# Faces: 1000
#
####
vn 0.6599084 0.7313066 0.1723706
v 22.8821545 1.0000000 0.5608300
vn 0.5885101 -0.7313066 0.3447413
v 22.8821545 0.0000000 0.5608300
vn 0.2596883 0.7345095 0.6269431
v 23.8821545 1.0000000 -0.4391700
vn 0.1326530 -0.9379987 0.3202528
v 23.8821545 0.0000000 -0.4391700
vn 0.8164966 -0.4082483 0.4082483
v 22.8821545 0.0000000 2.5608301
vn 0.3333333 0.6666667 0.6666667
v 22.8821545 1.0000000 2.5608301
vn -0.6599084 -0.7313066 0.1723706
v 20.8821545 0.0000000 0.5608300
vn -0.5885101 0.7313066 0.3447413
v 20.8821545 1.0000000 0.5608300
vn -0.2274583 -0.8041865 0.5491329
v 19.8821545 0.0000000 -0.4391700
vn -0.1126312 0.9557071 0.2719157
v 19.8821545 1.0000000 -0.4391700
vn -0.8164966 0.4082483 0.4082483
v 20.8821545 1.0000000 2.5608301
vn -0.3333333 -0.6666667 0.6666667
v 20.8821545 0.0000000 2.5608301
vn 0.4082483 -0.4082483 0.8164966
v 26.3821545 0.0000000 -0.4391700
vn 0.8164966 0.4082483 0.4082483
v 26.3821545 1.0000000 -0.4391700
vn -0.4082483 0.4082483 0.8164966
v 17.3821545 1.0000000 -0.4391700
vn -0.8164966 -0.4082483 0.4082483
v 17.3821545 0.0000000 -0.4391700
vn -0.6666667 0.6666667 -0.3333333
v 17.3821545 1.0000000 -1.4391700
vn -0.2367630 0.7629716 -0.6015128
v 20.3821545 1.0000000 -1.4391700
vn -0.3333333 -0.6666667 -0.6666667
v 17.3821545 0.0000000 -1.4391700
vn -0.4746001 -0.7625389 -0.4396466
v 20.3821545 0.0000000 -1.4391700
vn 0.3333333 0.6666667 -0.6666667
v 26.3821545 1.0000000 -1.4391700
vn 0.6666667 -0.6666667 -0.3333333
v 26.3821545 0.0000000 -1.4391700
vn 0.3116240 0.9347573 -0.1706441
v 23.1683693 1.0000000 -1.4391700
vn 0.1555739 -0.9346907 -0.3196092
v 23.1683693 0.0000000 -1.4391700
vn 0.5957960 -0.8029230 0.0184873
v 23.1268711 0.0000000 -2.2415965
vn -0.5462040 0.7029069 -0.4556129
v 27.4261723 1.0000000 -19.5453110
vn 0.3259897 0.8712019 -0.3670669
v 27.1941948 1.0000000 -19.2519207
vn -0.1866321 -0.8832705 -0.4301181
v 27.2011261 0.0000000 -19.2128105
vn 0.6587198 -0.7085342 -0.2531157
v 27.1425800 0.0000000 -19.4097061
vn 0.5692918 -0.5669826 -0.5953466
v 27.0624466 0.0000000 -19.5727272
vn 0.4781797 0.4430185 -0.7583395
v 26.9228039 1.0000000 -19.6611309
vn 0.5846143 0.7191278 -0.3756079
v 27.0916462 1.0000000 -19.5287781
vn 0.3398771 -0.7098937 -0.6168748
v 26.8907757 0.0000000 -19.6698303
vn 0.4966735 -0.5643047 -0.6594510
v 26.6981945 0.0000000 -19.7731457
vn 0.6868082 0.5900662 -0.4244012
v 26.5955658 1.0000000 -19.8748112
vn 0.7548820 0.6024155 -0.2593239
v 26.6179161 1.0000000 -20.2558289
vn 0.7954099 -0.5808759 -0.1729343
v 26.5953369 0.0000000 -19.8942852
vn 0.5972921 -0.7382784 -0.3133485
v 26.5912170 0.0000000 -20.2539158
vn 0.5845717 0.7501751 -0.3090524
v 26.4647770 1.0000000 -20.3342495
vn 0.6543030 0.7207929 -0.2287908
v 26.4582672 1.0000000 -20.6408443
vn 0.8491741 -0.4294595 -0.3073563
v 26.4464245 0.0000000 -20.6383858
vn 0.7816510 0.5842797 -0.2182637
v 26.2637119 1.0000000 -20.8959579
vn 0.5868859 -0.8095737 0.0124649
v 26.2641144 0.0000000 -21.1299095
vn 0.5914919 0.8059055 0.0255682
v 26.5918331 1.0000000 -22.5312920
vn 0.6875221 -0.7178043 -0.1098656
v 26.5959873 0.0000000 -22.6632137
vn 0.7760668 0.6089356 -0.1640662
v 26.4482536 1.0000000 -23.0193329
vn 0.6829166 -0.7116716 -0.1647682
v 26.4497795 0.0000000 -23.0124207
vn 0.2862087 -0.9578374 -0.0251434
v 26.4151268 0.0000000 -23.4616623
vn 0.3146016 0.9487019 -0.0314739
v 26.4144516 1.0000000 -23.4739513
vn 0.0031431 0.9890031 0.1478611
v 26.2739773 1.0000000 -24.7091465
vn 0.1373127 -0.9887305 0.0596419
v 26.2760391 0.0000000 -24.7019215
vn -0.4073562 -0.7145554 0.5687456
v 26.9817848 0.0000000 -24.3357449
vn -0.4233784 -0.5450372 0.7236609
v 27.1452351 0.0000000 -24.1435604
vn -0.3495269 -0.8394966 0.4160246
v 27.9390945 0.0000000 -23.9083233
vn -0.4692434 0.5700871 0.6743971
v 27.0520363 1.0000000 -24.2618790
vn -0.2987841 0.5703827 0.7651090
v 27.3588448 1.0000000 -24.1183891
vn -0.4996189 0.8343267 0.2329805
v 27.9438324 1.0000000 -23.8769646
vn -0.8304788 -0.5542668 0.0556169
v 28.1371994 0.0000000 -21.8228493
vn -0.7088630 0.7053381 0.0034032
v 28.1575489 1.0000000 -21.4560909
vn -0.7055107 -0.7064242 -0.0567416
v 28.1501369 0.0000000 -21.0973587
vn -0.6844215 0.7088842 -0.1704420
v 28.0615978 1.0000000 -20.4110298
vn -0.6366654 -0.7094135 -0.3023071
v 28.0054760 0.0000000 -20.2392540
vn -0.5564643 0.7124936 -0.4274346
v 27.8042908 1.0000000 -19.9107323
vn -0.4601538 -0.7982979 -0.3885600
v 27.4322510 0.0000000 -19.5405254
vn 0.8273289 -0.5576040 0.0678594
v 29.5175343 0.0000000 -22.9643955
vn 0.8283738 0.5601126 0.0084076
v 29.5264511 1.0000000 -23.2820911
vn 0.5786322 -0.8081414 -0.1099649
v 29.4817734 0.0000000 -24.3237724
vn 0.4760672 0.8620444 -0.1738953
v 29.4642811 1.0000000 -24.4029465
vn 0.5806447 -0.8011763 0.1448047
v 29.3428230 0.0000000 -21.8775768
vn 0.6925040 0.7094128 0.1310409
v 29.3846245 1.0000000 -22.0245476
vn 0.6999905 -0.7102957 0.0741177
v 29.0447865 0.0000000 -20.8576393
vn 0.6898621 0.7108852 0.1368675
v 29.0471954 1.0000000 -20.8914318
vn 0.6288447 0.7203355 0.2926964
v 28.8257427 1.0000000 -19.6623611
vn 0.6471540 -0.7150481 0.2643823
v 29.0262432 0.0000000 -19.9218426
vn 0.6724882 0.7224218 0.1608303
v 29.0344753 1.0000000 -19.9190464
vn 0.8154087 -0.5464064 0.1911774
v 28.7678280 0.0000000 -19.3965435
vn 0.5451699 -0.5560753 0.6273516
v 28.6977844 0.0000000 -18.0268383
vn 0.5840452 0.5560997 0.5913074
v 28.7005520 1.0000000 -18.0293484
vn 0.5565417 -0.7088683 0.4333210
v 28.7237911 0.0000000 -18.0555325
vn 0.5887329 0.7090937 0.3880462
v 28.7237911 1.0000000 -18.0555325
vn 0.5757490 0.8056719 0.1393053
v 28.7591724 1.0000000 -18.1202011
vn 0.5495011 -0.8042310 0.2264092
v 28.7564850 0.0000000 -18.1123524
vn 0.7045951 -0.7086250 0.0373675
v 28.7748127 0.0000000 -18.2353230
vn 0.5992212 0.8004932 -0.0120282
v 28.7760487 1.0000000 -18.3768539
vn 0.5143903 -0.8575009 -0.0097414
v 28.7362213 0.0000000 -18.9397602
vn 0.5114579 0.8588504 0.0280525
v 28.7265949 1.0000000 -19.0715694
vn 0.5332920 0.7093680 0.4608653
v 28.5571003 1.0000000 -17.9087276
vn 0.5069386 -0.6101872 0.6088389
v 28.2160721 0.0000000 -17.4531574
vn 0.4126400 -0.8001369 0.4353265
v 28.6406784 0.0000000 -17.9830685
vn 0.3769592 0.8001827 0.4664863
v 28.6406784 1.0000000 -17.9830685
vn 0.4543839 0.7146122 0.5318503
v 28.2362709 1.0000000 -17.4582748
vn 0.0175694 0.5821952 0.8128592
v 27.4065475 1.0000000 -17.1769333
vn -0.0172582 -0.7224262 0.6912327
v 27.4053345 0.0000000 -17.1872711
vn 0.0846422 -0.7291526 0.6790966
v 27.6028805 0.0000000 -17.1430492
vn 0.1128913 0.4645113 0.8783421
v 27.5951481 1.0000000 -17.1389217
vn -0.4787147 -0.8774036 0.0315484
v 26.9264507 0.0000000 -17.2225609
vn -0.0822468 -0.3140250 0.9458455
v 27.1483879 0.0000000 -17.0932159
vn 0.0073940 0.9883466 0.1520407
v 27.4473782 1.0000000 -17.6086578
vn -0.8494585 0.5146697 0.1163419
v 26.8862343 1.0000000 -17.2206459
vn -0.1427238 -0.9838186 -0.1083092
v 27.4055748 0.0000000 -17.5938358
vn -0.1574540 0.8856412 0.4368615
v 26.7515621 1.0000000 -17.3801365
vn -0.3708310 -0.3261146 0.8695595
v 26.7443848 0.0000000 -17.3789120
vn -0.6721134 -0.7331713 -0.1035539
v 26.6743565 0.0000000 -17.5883999
vn -0.9298358 0.3275681 0.1676448
v 26.6490898 1.0000000 -17.5430031
vn -0.3726427 0.8421922 -0.3896789
v 26.8090439 1.0000000 -17.8603649
vn -0.6941484 -0.2539003 -0.6735671
v 26.7818565 -0.0000000 -17.8414211
vn -0.7545579 0.5549076 -0.3503141
v 26.7011795 1.0000000 -17.6790791
vn 0.0304264 -0.7649903 0.6433227
v 26.8902130 0.0000000 -17.9750977
vn -0.1925077 -0.9812950 -0.0009521
v 26.9553146 0.0000000 -17.9380016
vn -0.4398414 0.8980637 -0.0045995
v 26.9518547 1.0000000 -17.9369183
vn 0.6033775 -0.7427106 0.2903731
v 26.6266403 0.0000000 -17.8284111
vn 0.4501453 0.5555179 0.6991202
v 26.8408871 1.0000000 -17.9404964
vn 0.4176260 -0.5555418 0.7190006
v 26.8408833 0.0000000 -17.9404945
vn 0.0184626 0.9217637 0.3873124
v 26.8878002 1.0000000 -17.9739437
vn 0.4754976 0.7424708 0.4718465
v 26.6268806 1.0000000 -17.8277168
vn 0.7528651 0.5814971 0.3083104
v 26.5918198 1.0000000 -17.5706043
vn 0.5127241 -0.7341840 0.4450708
v 26.5812550 0.0000000 -17.5376434
vn 0.6374587 -0.6014002 0.4816267
v 26.1869335 0.0000000 -17.4088326
vn 0.3463029 0.7479597 0.5662426
v 26.1876793 1.0000000 -17.4079742
vn 0.2159742 -0.7106676 0.6695571
v 26.4515133 0.0000000 -17.4679642
vn 0.3138398 0.7149475 0.6247838
v 26.4699993 1.0000000 -17.4723186
vn 0.5834142 -0.8108397 -0.0465509
v 26.0871029 0.0000000 -17.0977364
vn 0.6917623 0.7197617 -0.0583785
v 26.1923904 1.0000000 -16.7266750
vn 0.8140705 0.5729975 0.0946735
v 26.0810623 1.0000000 -17.0910282
vn 0.7834132 -0.4838191 0.3901061
v 26.0619297 0.0000000 -16.5228214
vn 0.5737411 0.5581936 0.5993671
v 26.1185265 1.0000000 -16.5659504
vn 0.5645727 -0.7138556 0.4143282
v 26.1405697 0.0000000 -16.5896740
vn 0.6355720 0.7107069 0.3015689
v 26.1615143 1.0000000 -16.6255245
vn 0.8095974 -0.5730986 0.1269259
v 26.1873169 0.0000000 -16.6977558
vn 0.6128531 0.7176660 0.3307063
v 25.9884567 1.0000000 -16.0970783
vn 0.6851360 -0.7108478 0.1590098
v 26.0552368 0.0000000 -16.2954102
vn 0.6985070 0.7105134 0.0851983
v 26.0567932 1.0000000 -16.3086185
vn 0.5939538 0.7438147 0.3065265
v 26.0617619 1.0000000 -16.5235939
vn 0.7844177 -0.6013336 0.1519438
v 25.6941280 0.0000000 -15.8361177
vn 0.4579739 -0.8083497 0.3699066
v 25.9802189 0.0000000 -16.0842113
vn 0.5758446 0.7482339 0.3294679
v 25.6933327 1.0000000 -15.8302469
vn 0.5654297 -0.7425140 0.3591134
v 25.7106190 0.0000000 -15.5986376
vn 0.6578550 0.7431889 0.1220539
v 25.7272682 1.0000000 -15.6397991
vn 0.5992683 -0.7444236 0.2944677
v 25.4364185 0.0000000 -15.3831396
vn 0.7847671 0.4813038 0.3904963
v 25.4388962 1.0000000 -15.3759289
vn 0.6208179 -0.7159335 0.3194126
v 25.3974857 0.0000000 -15.0479975
vn 0.6694548 0.7162970 0.1968474
v 25.4074402 1.0000000 -15.0727997
vn 0.8277980 -0.5557763 0.0765710
v 25.4354877 0.0000000 -15.2769012
vn 0.3496815 0.6453421 0.6791587
v 25.1747398 1.0000000 -14.9235201
vn 0.5299180 -0.7857905 0.3189361
v 25.1736164 0.0000000 -14.9238939
vn 0.0790646 -0.5557854 0.8275576
v 25.2292805 0.0000000 -14.9261427
vn 0.1237073 0.5557253 0.8221106
v 25.2292805 1.0000000 -14.9261427
vn 0.2476488 0.7093892 0.6598766
v 25.2721786 1.0000000 -14.9349470
vn 0.1914509 -0.7091289 0.6785887
v 25.2695694 0.0000000 -14.9342031
vn 0.4609202 -0.5643970 0.6848419
v 25.3298149 0.0000000 -14.9615049
vn 0.5790951 0.5662901 0.5864847
v 25.3347607 1.0000000 -14.9650774
vn 0.5698870 0.8070421 0.1546345
v 25.1324158 1.0000000 -14.5230980
vn 0.6345561 -0.7156490 0.2918648
v 25.1231804 0.0000000 -14.4931259
vn 0.4046667 -0.8976420 0.1745964
v 24.8253765 0.0000000 -14.0540667
vn 0.6441839 0.7138121 0.2747715
v 24.8236752 1.0000000 -14.0486012
vn 0.3979681 -0.8947792 0.2024639
v 24.6953239 0.0000000 -13.6314411
vn 0.6309080 0.7072067 0.3190827
v 24.6943798 1.0000000 -13.6260557
vn 0.8486581 -0.4488246 0.2798855
v 24.7668324 0.0000000 -13.7906036
vn 0.6701376 0.7090052 0.2196067
v 24.7649460 1.0000000 -13.7874756
vn 0.3645763 0.7179488 0.5929871
v 23.8995953 1.0000000 -12.8470860
vn 0.5160677 -0.8054829 0.2913271
v 23.6880188 0.0000000 -12.8497467
vn 0.5333778 -0.4820148 0.6951042
v 24.3163586 0.0000000 -12.9679995
vn 0.4320702 0.7334567 0.5247443
v 24.3326511 1.0000000 -12.9936838
vn 0.8292499 -0.5545441 -0.0694658
v 23.7708950 0.0000000 -12.3972740
vn 0.7168211 0.6962569 0.0373347
v 23.7585812 1.0000000 -12.5014944
vn 0.4377782 0.8363979 -0.3298314
v 23.9961281 1.0000000 -11.3231001
vn 0.6967721 0.7118524 -0.0881746
v 23.7783890 1.0000000 -12.0058661
vn 0.5837930 -0.8016538 -0.1285962
v 23.7826385 0.0000000 -12.0025091
vn 0.1377017 -0.9106139 -0.3896417
v 24.8503914 0.0000000 -10.7779436
vn 0.2953950 0.8783731 -0.3757692
v 24.8503914 1.0000000 -10.7779436
vn 0.5232810 -0.6146994 -0.5901878
v 24.6765614 0.0000000 -11.0273275
vn 0.2989092 0.8990727 -0.3198775
v 24.6978817 1.0000000 -10.9994402
vn 0.3172857 0.5579347 -0.7668368
v 24.2365742 1.0000000 -11.2729788
vn 0.3900896 -0.7445603 -0.5417196
v 23.9941216 0.0000000 -11.3449554
vn 0.1518446 0.3190131 -0.9355072
v 25.2658520 1.0000000 -10.7626066
vn 0.2623854 -0.3200844 -0.9103295
v 25.2868443 0.0000000 -10.7556849
vn 0.1898318 -0.6136994 -0.7663791
v 26.9114723 0.0000000 -11.2841072
vn -0.1229054 0.7147741 -0.6884711
v 26.6069775 1.0000000 -11.2757816
vn -0.5012664 0.7219914 -0.4769282
v 26.1662579 1.0000000 -11.0865879
vn -0.3532672 -0.7330732 -0.5812107
v 26.1866264 0.0000000 -11.1067123
vn -0.1568102 -0.9584299 -0.2383753
v 25.8212681 0.0000000 -10.5341988
vn -0.0095764 0.9586816 -0.2843200
v 25.8202190 1.0000000 -10.5305033
vn 0.9064410 0.4195743 0.0481898
v 27.3878326 1.0000000 -10.5674019
vn 0.2775055 -0.7172759 -0.6391447
v 27.3365841 0.0000000 -10.7774696
vn 0.5181559 0.5954099 -0.6140045
v 27.0460758 1.0000000 -11.2237797
vn 0.8983313 -0.4374236 0.0407617
v 27.5220928 0.0000000 -10.7181902
vn 0.3122026 0.1356883 -0.9402757
v 27.5196228 1.0000000 -10.7711859
vn 0.8076115 -0.5554016 0.1982243
v 27.3742390 0.0000000 -10.4621935
vn 0.7060046 0.7067235 0.0458189
v 27.3162365 1.0000000 -9.8668127
vn 0.3547839 -0.9313125 -0.0823739
v 27.3265476 0.0000000 -8.7714729
vn 0.4266298 0.8988012 -0.1007148
v 27.3239136 1.0000000 -8.7716398
vn 0.5136833 -0.8578694 0.0137743
v 27.3134880 0.0000000 -9.8539362
vn 0.2852178 -0.9278778 -0.2401950
v 27.4320927 0.0000000 -8.5497103
vn 0.9177114 0.3972048 -0.0058478
v 27.6488495 1.0000000 -8.4470100
vn 0.2916090 0.8704748 -0.3965323
v 27.4353161 1.0000000 -8.5490532
vn 0.7049838 -0.4639336 -0.5364360
v 27.6481342 0.0000000 -8.4677343
vn 0.4525074 -0.8881674 0.0799738
v 27.5501003 0.0000000 -8.3633289
vn 0.5429348 0.6911192 -0.4770493
v 27.6779575 1.0000000 -7.5564771
vn 0.3553720 -0.8848957 -0.3011151
v 27.6759033 0.0000000 -7.5612760
vn 0.5902781 0.8046984 -0.0634999
v 27.6150990 1.0000000 -8.2856331
vn 0.9299805 -0.3216829 -0.1779230
v 27.6516819 0.0000000 -8.1486216
vn 0.4570761 -0.6397566 -0.6178941
v 27.8184509 0.0000000 -7.5314693
vn 0.9389678 -0.3269221 -0.1070585
v 27.8531914 0.0000000 -7.4566765
vn 0.3823963 0.7388449 -0.5548705
v 27.8210144 1.0000000 -7.5305080
vn 0.8903430 0.3217838 -0.3220942
v 27.8446522 1.0000000 -7.4913888
vn 0.4184437 -0.7706907 0.4805628
v 27.6415787 0.0000000 -7.3664141
vn 0.4328541 -0.7829011 0.4468816
v 27.8430786 -0.0000000 -7.3908057
vn 0.3168073 0.8765671 0.3623029
v 27.6420002 1.0000000 -7.3691583
vn 0.5199707 0.7025707 0.4858240
v 27.8505669 1.0000000 -7.3936357
vn -0.0052044 -0.5694720 0.8219942
v 27.0669823 0.0000000 -6.5407748
vn 0.2055495 0.7248878 0.6574855
v 27.1699047 1.0000000 -6.5575595
vn 0.4521895 -0.5626941 0.6920260
v 27.2527370 0.0000000 -6.6043591
vn 0.6850649 0.4556281 0.5684093
v 27.3739948 1.0000000 -6.7127795
vn 0.5513548 -0.7114332 0.4357416
v 27.3843193 0.0000000 -6.7281008
vn 0.6636777 0.7097848 0.2360879
v 27.5573559 1.0000000 -7.0385122
vn 0.6398803 -0.7094372 0.2953848
v 27.5453129 0.0000000 -7.0082974
vn -0.5994223 -0.7105504 0.3685255
v 26.4888115 0.0000000 -6.9719729
vn -0.7529044 0.4583841 0.4722491
v 26.5016289 1.0000000 -6.9552832
vn -0.4230203 -0.7203531 0.5496774
v 26.7899208 0.0000000 -6.6182818
vn -0.3075270 0.5786176 0.7553998
v 26.8492050 1.0000000 -6.5809927
vn -0.4761875 0.8085679 0.3456347
v 26.0232067 1.0000000 -8.2316828
vn -0.4571989 -0.8637694 0.2118297
v 26.0465813 0.0000000 -8.1893749
vn -0.7921725 0.5560162 0.2516123
v 26.1365299 1.0000000 -7.8433623
vn -0.7846587 -0.5519232 0.2822967
v 26.1516132 0.0000000 -7.7758050
vn -0.6533090 -0.5598101 0.5097057
v 25.8148308 0.0000000 -8.4265203
vn -0.7097699 0.5592578 0.4283192
v 25.8124161 1.0000000 -8.4280930
vn -0.5381008 -0.7315128 0.4187320
v 25.6704102 0.0000000 -8.7772627
vn -0.2762104 -0.9434037 0.1835684
v 25.5497551 0.0000000 -8.9080563
vn -0.6020635 -0.3513570 0.7169852
v 25.5609226 0.0000000 -8.8208418
vn -0.8351142 0.3631894 0.4131317
v 25.5549049 1.0000000 -8.8325348
vn -0.3905810 0.7333241 0.5564910
v 25.6453667 1.0000000 -8.8019276
vn -0.0756336 0.9581314 0.2761591
v 25.5497284 1.0000000 -8.9078703
vn 0.1811592 -0.5547714 0.8120407
v 25.3896389 0.0000000 -8.8699579
vn 0.1270979 0.8839438 0.4499884
v 23.3365784 1.0000000 -8.8347826
vn 0.3278647 -0.9210290 0.2102626
v 23.3363457 0.0000000 -8.8352251
vn -0.0683950 -0.3213979 0.9444711
v 24.2699738 0.0000000 -8.6314840
vn 0.0689108 0.3233809 0.9437564
v 24.2895317 1.0000000 -8.6326189
vn 0.8283232 0.5551111 0.0757122
v 23.1562805 1.0000000 -7.4447765
vn 0.7951218 0.6000026 0.0881947
v 23.3153553 1.0000000 -8.5810499
vn 0.7025686 -0.7073990 0.0773578
v 23.3176727 0.0000000 -8.6059618
vn 0.3133465 0.9493948 -0.0215299
v 23.0569763 1.0000000 -5.8769660
vn 0.7024348 -0.7114317 -0.0212200
v 23.0523357 0.0000000 -5.8924856
vn 0.5962839 -0.7997562 0.0695383
v 23.1698475 0.0000000 -7.5420609
vn 0.8019979 -0.5653742 0.1927472
v 23.0622177 0.0000000 -5.7137580
vn 0.9347118 0.3308981 0.1296929
v 23.0848675 1.0000000 -5.7396965
vn 0.5561075 0.8193122 0.1395418
v 22.9759235 1.0000000 -5.6074638
vn 0.7135323 -0.6991276 0.0457420
v 22.9922810 0.0000000 -4.8815041
vn 0.8320153 0.5519532 0.0556614
v 22.9939156 1.0000000 -4.9034019
vn 0.8749233 -0.4694751 -0.1187539
v 23.1076012 0.0000000 -3.9276822
vn 0.9661804 0.2479032 -0.0709886
v 23.1438618 1.0000000 -3.8261778
vn 0.6105548 -0.7890789 -0.0676568
v 22.9334164 0.0000000 -4.4440756
vn 0.4361114 0.8982252 -0.0547570
v 22.9458179 1.0000000 -4.3826942
vn 0.8143544 -0.5552558 0.1688730
v 23.0895920 0.0000000 -3.6045847
vn 0.5823557 0.8106174 0.0613292
v 23.0192528 1.0000000 -3.4540567
vn 0.5848240 -0.8083941 -0.0669327
v 23.0215969 0.0000000 -3.3196497
vn 0.6891431 -0.7111270 -0.1392132
v 23.1470680 0.0000000 -2.9448929
vn 0.7021041 0.7107289 0.0437523
v 23.1346340 1.0000000 -2.2357841
vn 0.9481599 -0.3140617 0.0485595
v 23.1793709 0.0000000 -2.5182552
vn 0.9587568 0.2437579 -0.1461762
v 23.1618938 1.0000000 -2.8903439
vn -0.7348242 0.5602662 -0.3822763
v 20.8828812 1.0000000 -2.7157919
vn -0.6961399 -0.5538476 -0.4567735
v 20.8702621 0.0000000 -2.6997433
vn -0.3843202 0.9059413 -0.1776752
v 21.4909439 1.0000000 -3.4418809
vn -0.4160807 -0.9066265 -0.0700382
v 21.5115089 0.0000000 -3.5019972
vn -0.9462783 0.3166223 -0.0656342
v 21.4358940 1.0000000 -4.0472722
vn -0.4262401 -0.8999601 -0.0916039
v 21.7022724 0.0000000 -4.7248864
vn -0.9156607 -0.3240798 -0.2377770
v 21.4623070 0.0000000 -4.2360082
vn -0.6019639 0.7904819 -0.1130395
v 21.7012062 1.0000000 -4.7336588
vn -0.8390552 -0.3693151 0.3994904
v 21.5575581 0.0000000 -5.5116978
vn -0.4746167 -0.8699316 0.1340078
v 21.6806488 0.0000000 -5.3816166
vn -0.4797125 0.8201333 0.3118611
v 21.6673203 1.0000000 -5.4225578
vn -0.9267793 0.3748636 -0.0236115
v 21.5472050 1.0000000 -5.5168662
vn -0.7016357 -0.7099267 0.0609227
v 21.5079193 0.0000000 -6.0562792
vn -0.7756795 -0.6263891 -0.0771885
v 21.6062965 0.0000000 -5.6243744
vn -0.5265394 0.8482913 -0.0561977
v 21.6050110 1.0000000 -5.6311340
vn -0.8249644 0.5498446 0.1307845
v 21.4836617 1.0000000 -6.0953546
vn -0.7008883 0.7122834 0.0375228
v 21.0653591 1.0000000 -9.2211266
vn -0.5898853 -0.8013076 0.0997069
v 21.1617699 0.0000000 -8.5774488
vn -0.6923788 0.7074366 0.1419336
v 21.1899433 1.0000000 -8.4497375
vn -0.8231815 -0.5512365 0.1360540
v 21.4518948 0.0000000 -7.3093967
vn -0.5956695 0.8015937 0.0512397
v 21.4923172 1.0000000 -7.1071477
vn -0.7052937 -0.7077121 -0.0412851
v 21.0585938 0.0000000 -9.4531031
vn -0.5819464 -0.8084121 0.0883643
v 21.1593590 0.0000000 -10.0248146
vn -0.8263851 0.5624760 -0.0266149
v 21.1497669 1.0000000 -9.9354124
vn -0.8896565 -0.4514095 0.0688541
v 21.0611477 0.0000000 -10.2403564
vn -0.6766253 0.6990538 0.2313051
v 21.0141449 1.0000000 -10.5582504
vn -0.7841353 0.6094819 0.1168914
v 21.0871468 1.0000000 -10.2492456
vn -0.5746350 -0.8152087 0.0723142
v 21.1044579 0.0000000 -10.3950300
vn -0.6630259 -0.5823447 0.4703950
v 20.9739361 0.0000000 -10.6951141
vn -0.6907123 -0.5725045 0.4417637
v 20.8101692 0.0000000 -10.7764072
vn -0.6560876 0.7350626 0.1709743
v 20.8599987 1.0000000 -10.8468847
vn -0.6227344 0.5891106 0.5149277
v 20.9608345 1.0000000 -10.7062435
vn -0.6727170 -0.7143009 0.1929408
v 20.8204727 0.0000000 -11.0655832
vn -0.6498712 0.5845408 0.4857772
v 20.8057842 1.0000000 -11.1393394
vn -0.6727017 -0.7277878 0.1334070
v 20.7506485 0.0000000 -11.3809843
vn -0.7162726 -0.6614317 0.2223999
v 20.7016811 0.0000000 -11.2075167
vn -0.3427261 0.9281533 0.1451564
v 20.7072525 1.0000000 -11.1971588
vn -0.7027823 0.7095386 -0.0514990
v 20.5642281 1.0000000 -12.2198210
vn -0.5830419 -0.8120768 0.0243614
v 20.6369209 0.0000000 -12.6345892
vn -0.8153123 -0.5689458 0.1075476
v 20.5725098 0.0000000 -11.8025751
vn -0.6681058 0.7131040 0.2124087
v 20.6025124 1.0000000 -11.6924114
vn -0.8153995 0.5785107 -0.0211911
v 20.7522812 1.0000000 -11.3820562
vn -0.5851524 0.8092827 0.0515578
v 20.2325497 1.0000000 -13.5360270
vn -0.6719588 0.7258976 0.1467790
v 20.6506119 1.0000000 -12.6161737
vn -0.8946548 -0.4454303 -0.0344183
v 20.2458878 0.0000000 -13.6754570
vn -0.6968620 0.7153822 -0.0511047
v 20.2630405 1.0000000 -13.6894341
vn -0.5666075 -0.8056769 0.1727442
v 20.2526073 0.0000000 -13.4880686
vn -0.5766725 0.8105139 0.1025485
v 20.2574654 1.0000000 -13.8012943
vn -0.5556144 -0.8100426 0.1874130
v 20.2519264 0.0000000 -13.8135214
vn -0.4757932 -0.8735568 0.1025644
v 20.1699963 0.0000000 -14.1327953
vn -0.8138584 -0.5807712 -0.0184212
v 20.1334324 0.0000000 -14.0375547
vn -0.7850221 0.5755242 0.2291553
v 20.1421986 1.0000000 -13.9994230
vn -0.7278221 0.6585272 0.1913554
v 20.1662579 1.0000000 -14.1367512
vn -0.7273271 -0.6389831 0.2503918
v 19.8147316 0.0000000 -14.4839725
vn -0.6332535 0.7438309 0.2137889
v 19.8145218 1.0000000 -14.4981880
vn -0.5539290 0.8007594 0.2279188
v 19.7575150 1.0000000 -15.1677418
vn -0.4644237 -0.8579897 0.2194636
v 19.7545319 0.0000000 -15.1724663
vn -0.6721653 0.7160832 0.1881986
v 19.8606434 1.0000000 -14.9785671
vn -0.4226354 -0.8986288 0.1176670
v 19.8607578 0.0000000 -14.9740877
vn -0.5988168 -0.8008808 -0.0029271
v 19.8641682 0.0000000 -14.9078646
vn -0.5124530 0.8581191 -0.0319948
v 19.8641682 1.0000000 -14.9078646
vn -0.5959061 -0.7259872 0.3432763
v 19.1631374 0.0000000 -16.2341022
vn -0.5223030 -0.5578004 0.6450260
v 19.3431320 0.0000000 -16.1146908
vn -0.5071968 0.7122595 0.4852193
v 19.3595924 1.0000000 -16.1056786
vn -0.6197801 -0.7117463 0.3305903
v 19.4916172 0.0000000 -15.9314804
vn -0.4921046 0.8333423 0.2517416
v 19.4966984 1.0000000 -15.9082861
vn -0.6776724 -0.7107127 0.1888059
v 18.9966202 0.0000000 -16.6969070
vn -0.4186779 -0.8946999 0.1556307
v 19.0779629 0.0000000 -16.5119438
vn -0.5845912 0.7814507 0.2181467
v 19.0748100 1.0000000 -16.5214729
vn -0.4954564 0.7259767 0.4769495
v 19.1642246 1.0000000 -16.2302532
vn -0.4099326 0.7877539 0.4597814
v 19.0001793 1.0000000 -17.4584942
vn -0.4544882 -0.8746969 0.1683622
v 19.0097733 0.0000000 -17.4639854
vn -0.7037975 -0.7103975 0.0021505
v 18.9569225 0.0000000 -17.0163574
vn -0.7056216 0.7085668 0.0055953
v 18.9548378 1.0000000 -17.0256500
vn -0.5299159 0.8348215 0.1492059
v 18.9982719 1.0000000 -16.6933479
vn -0.6808408 -0.7263821 0.0939409
v 18.8163319 0.0000000 -17.5634861
vn -0.4728512 0.8347856 0.2820370
v 18.8211651 1.0000000 -17.5566444
vn -0.3415227 -0.7245840 0.5986153
v 18.8772850 0.0000000 -17.4773560
vn -0.7067717 -0.5635923 0.4275952
v 18.8330173 0.0000000 -18.1483402
vn -0.7655470 0.5630873 0.3112402
v 18.8373871 1.0000000 -18.1384697
vn -0.6945303 -0.7080438 0.1276783
v 18.8543854 0.0000000 -18.0647030
vn -0.7009470 0.7080857 0.0853696
v 18.8543854 1.0000000 -18.0647030
vn -0.5137016 -0.8578290 0.0154954
v 18.8578148 0.0000000 -18.0148087
vn -0.5139169 0.8578072 -0.0075001
v 18.8578148 1.0000000 -18.0148087
vn -0.5981199 -0.8002366 -0.0432904
v 18.8531075 0.0000000 -17.9143906
vn -0.5974513 0.8002732 -0.0511347
v 18.8485241 1.0000000 -17.8731537
vn -0.7972301 0.5656664 0.2108215
v 18.7276402 1.0000000 -18.4965172
vn -0.6527078 -0.7123083 0.2580492
v 18.7688828 0.0000000 -18.2254543
vn -0.6061567 0.7178537 0.3424329
v 18.7719479 1.0000000 -18.2185421
vn -0.6947595 0.7082788 -0.1251015
v 18.7021198 1.0000000 -19.2725353
vn -0.7917638 -0.6106718 0.0137928
v 18.5869141 0.0000000 -18.8558769
vn -0.5347286 0.8448836 0.0153976
v 18.5914440 1.0000000 -18.8859482
vn -0.3930942 -0.9192168 -0.0227486
v 18.7316475 0.0000000 -19.6178455
vn -0.4470557 0.8944214 -0.0123097
v 18.7359161 1.0000000 -19.7590351
vn -0.4388685 -0.8949054 -0.0808627
v 18.6967449 0.0000000 -19.2550335
vn -0.5053859 0.8582714 -0.0891932
v 18.7421265 1.0000000 -20.9788227
vn -0.5940321 -0.8026901 -0.0530505
v 18.7423286 0.0000000 -20.9290905
vn -0.7947884 0.5849296 0.1617679
v 18.9416714 1.0000000 -21.7175732
vn -0.8146248 -0.5795915 -0.0214479
v 18.9441090 0.0000000 -21.7045841
vn -0.5973551 -0.8019455 -0.0070865
v 18.5005550 0.0000000 -23.0266266
vn -0.6698449 -0.7101041 0.2169332
v 18.5425758 0.0000000 -22.5287323
vn -0.6916453 0.7168357 0.0881674
v 18.4808960 1.0000000 -22.8057327
vn -0.3132425 0.9379495 0.1487612
v 18.5249462 1.0000000 -23.2332726
vn 0.4018459 -0.8114179 0.4244066
v 18.5040569 0.0000000 -23.2323017
vn 0.5623913 0.7154477 0.4145489
v 18.4729156 1.0000000 -23.1881847
vn 0.6491202 -0.7091879 0.2751282
v 18.1869106 0.0000000 -22.5480042
vn 0.8250901 0.4469231 0.3456677
v 18.2159939 1.0000000 -22.6029167
vn 0.6969802 -0.5975451 0.3964323
v 17.7370758 0.0000000 -21.3806000
vn 0.5733621 0.7163950 0.3975351
v 17.7411308 1.0000000 -21.3839893
vn 0.7762279 -0.4356071 0.4557596
v 17.2544899 0.0000000 -20.4818878
vn 0.5814969 0.7237984 0.3714530
v 17.5455379 1.0000000 -21.2090206
vn 0.6190037 0.7082360 0.3394645
v 17.2617531 1.0000000 -20.4845333
vn 0.6260508 0.7253365 0.2862645
v 16.2995358 1.0000000 -18.7955494
vn 0.8071197 -0.4657561 0.3628072
v 16.3085327 0.0000000 -18.8090057
vn 0.6486242 0.7193269 0.2487078
v 16.3506508 1.0000000 -19.2346687
vn 0.4063288 -0.9008843 0.1526579
v 16.3472195 0.0000000 -19.2300358
vn 0.2859761 -0.8071516 0.5164533
v 15.7102308 0.0000000 -18.1542320
vn 0.3666936 0.8074160 0.4621855
v 15.7188025 1.0000000 -18.1618996
vn 0.8790964 -0.3550829 0.3179711
v 15.3812590 0.0000000 -17.7772598
vn 0.2172586 0.9549774 0.2020322
v 15.2930460 1.0000000 -18.0072079
vn 0.2979156 -0.9542485 0.0256167
v 15.2945604 0.0000000 -18.0060349
vn 0.9336051 0.3532247 -0.0601161
v 15.3808317 1.0000000 -17.8057423
vn 0.9061070 -0.4156044 -0.0790138
v 15.3661346 0.0000000 -17.3377552
vn 0.3638155 -0.9310657 0.0274768
v 15.2039223 0.0000000 -17.5819244
vn 0.6309153 0.7748476 0.0394601
v 15.2205057 1.0000000 -17.5819168
vn 0.7497724 0.4129481 0.5170254
v 15.3652859 1.0000000 -17.3295212
vn -0.1127265 -0.5254042 0.8433524
v 15.2302494 0.0000000 -17.2563381
vn -0.0957716 0.7750910 0.6245493
v 15.2305174 1.0000000 -17.2631340
vn -0.6061783 0.7244073 0.3283018
v 14.7287703 1.0000000 -17.7419605
vn -0.3792793 -0.9028915 0.2023219
v 14.7253008 0.0000000 -17.7418213
vn -0.5223862 0.7356655 -0.4311717
v 14.7065096 1.0000000 -18.3624821
vn -0.6185253 -0.7374747 -0.2712152
v 14.7065096 0.0000000 -18.3624821
vn -0.8875942 -0.2846473 -0.3621499
v 14.6247396 0.0000000 -18.3104877
vn -0.8062949 0.5073603 -0.3040953
v 14.6185884 1.0000000 -18.2952385
vn -0.6839127 -0.7101201 -0.1673106
v 14.7570944 0.0000000 -18.7314396
vn -0.3319987 0.8787418 -0.3429137
v 15.0934629 1.0000000 -19.2091045
vn -0.4941760 0.7325110 -0.4682070
v 14.9227409 1.0000000 -19.1252480
vn -0.6532969 -0.4691868 -0.5941942
v 14.8905563 0.0000000 -19.1044579
vn -0.8635391 0.4526620 -0.2222551
v 14.7521563 1.0000000 -18.7246132
vn -0.4177405 0.6110653 -0.6723779
v 15.2635431 1.0000000 -19.4676018
vn -0.2981447 -0.8398359 -0.4536357
v 15.2316341 0.0000000 -19.4428883
vn -0.5823531 0.7146019 -0.3875681
v 15.1336040 1.0000000 -19.3389282
vn -0.8242078 -0.2475396 -0.5093189
v 15.1284437 0.0000000 -19.3321857
vn -0.9115327 0.3170529 -0.2618887
v 15.1022129 1.0000000 -19.2612667
vn -0.4952595 -0.8239493 -0.2753644
v 15.0918474 0.0000000 -19.2090702
vn -0.4798440 0.8454160 -0.2345667
v 15.4891319 1.0000000 -19.5325127
vn -0.3386705 -0.8438275 -0.4162421
v 15.4886789 0.0000000 -19.5345001
vn -0.4368487 0.8991382 -0.0267151
v 15.9016142 1.0000000 -21.9564228
vn -0.8613756 -0.4489367 -0.2376722
v 15.6331959 0.0000000 -21.4529114
vn -0.6732790 0.7172949 -0.1793975
v 15.6263762 1.0000000 -21.3819351
vn -0.4709297 0.4436148 0.7625163
v 15.5528669 1.0000000 -22.2690430
vn -0.3534054 -0.9238208 0.1471724
v 15.8861628 0.0000000 -21.9376869
vn -0.6431888 -0.4598364 0.6122570
v 15.2159166 0.0000000 -22.4240494
vn -0.3439865 -0.7388526 0.5794569
v 15.5079594 0.0000000 -22.3530045
vn -0.6026083 -0.7052858 -0.3734102
v 15.5186386 0.0000000 -23.0803604
vn -0.2576817 0.9494110 -0.1794967
v 15.7099323 1.0000000 -23.2999611
vn -0.9044821 0.4264846 -0.0047983
v 15.1909399 1.0000000 -22.4262028
vn -0.6214109 0.7064856 -0.3387131
v 15.8604546 1.0000000 -23.5232906
vn -0.3277356 -0.9200078 -0.2148838
v 15.8218718 0.0000000 -23.4431591
vn -0.7625361 0.4494698 -0.4653124
v 16.5722198 1.0000000 -24.9873142
vn -0.8275809 -0.2435240 -0.5057725
v 16.5702286 0.0000000 -24.9857330
vn -0.7375162 -0.5566133 -0.3824285
v 17.2511234 0.0000000 -26.1792145
vn -0.3156237 -0.9289516 -0.1934701
v 16.8514519 0.0000000 -25.3581181
vn -0.5300118 0.7832020 -0.3250879
v 16.8731651 1.0000000 -25.3887653
vn -0.5150691 0.5553233 -0.6529319
v 18.0887756 1.0000000 -27.2963543
vn -0.7082039 -0.3293050 -0.6245042
v 17.6676636 0.0000000 -26.8992157
vn -0.7934964 0.3261605 -0.5137927
v 17.4926682 1.0000000 -26.6465816
vn -0.3265372 -0.8001375 -0.5031437
v 19.2053165 0.0000000 -27.9418068
vn -0.3119129 0.8003121 -0.5120653
v 18.9417191 1.0000000 -27.7685661
vn -0.3785220 -0.7131775 -0.5899991
v 18.3200779 0.0000000 -27.4158516
vn -0.3013544 -0.9433947 -0.1385354
v 20.1942997 0.0000000 -28.4584370
vn -0.3688920 0.3167720 -0.8738273
v 19.8392696 1.0000000 -28.3341160
vn -0.4443841 0.5540920 -0.7039211
v 19.4948997 1.0000000 -28.1466923
vn -0.4448432 -0.3215702 -0.8358870
v 19.6583347 0.0000000 -28.2459774
vn -0.1375416 0.9883257 -0.0655348
v 20.1970768 1.0000000 -28.4537392
vn -0.7832282 0.6061246 0.1384438
v 19.6503906 1.0000000 -29.9112511
vn -0.5395051 -0.8365475 0.0955121
v 19.6530132 0.0000000 -29.9042645
vn -0.8582063 -0.3240029 -0.3981259
v 19.7402782 0.0000000 -31.6213379
vn -0.7090254 0.7038720 -0.0429785
v 19.6602497 1.0000000 -30.9521770
vn -0.8902191 -0.4528095 -0.0497345
v 19.6597576 0.0000000 -30.7706757
vn -0.1458829 0.5616476 -0.8144140
v 21.0852852 1.0000000 -32.6774139
vn -0.0258572 -0.5629833 -0.8260636
v 21.1008015 0.0000000 -32.6784935
vn -0.3684280 -0.6059140 -0.7050738
v 20.6370850 0.0000000 -32.5313797
vn -0.2527853 0.8360795 -0.4868991
v 20.6570034 1.0000000 -32.5373421
vn -0.3989743 -0.8354807 -0.3778777
v 20.0608559 0.0000000 -32.0831184
vn -0.5763111 0.6058583 -0.5484535
v 20.0753078 1.0000000 -32.1027489
vn -0.9144928 0.3186814 -0.2492891
v 19.7327118 1.0000000 -31.5986462
vn 0.2045728 -0.9056827 -0.3713337
v 22.6679878 0.0000000 -31.0263367
vn 0.3651075 0.9062421 -0.2131240
v 22.6715240 1.0000000 -31.0264988
vn 0.8215673 0.3372851 -0.4596367
v 22.5535564 1.0000000 -31.9424019
vn 0.9121585 -0.3268736 -0.2472259
v 22.6246872 0.0000000 -31.7559261
vn 0.4794062 -0.7165216 -0.5067215
v 22.2351742 0.0000000 -32.3108864
vn 0.3754093 0.7155126 -0.5891600
v 22.0691605 1.0000000 -32.4277420
vn 0.3211101 -0.5594099 -0.7641655
v 21.8727798 0.0000000 -32.5219955
vn 0.2031055 0.7090942 -0.6752285
v 21.6870956 1.0000000 -32.5843506
vn 0.1197210 -0.8012014 -0.5862961
v 21.4776764 0.0000000 -32.6343307
vn 0.0988443 0.7080006 -0.6992603
v 21.3832569 1.0000000 -32.6493034
vn 0.6804889 -0.5835769 0.4431398
v 22.8820133 0.0000000 -30.1158562
vn 0.7587685 0.5722796 -0.3110730
v 22.8964481 1.0000000 -30.8925514
vn 0.8137155 -0.5683411 -0.1218831
v 22.9038944 0.0000000 -30.8467369
vn 0.6005038 -0.3466886 -0.7205569
v 22.8143349 0.0000000 -31.0130005
vn 0.3085301 0.3403508 -0.8882401
v 22.7923965 1.0000000 -31.0213337
vn 0.4794003 0.8211524 0.3096514
v 22.6345272 1.0000000 -29.8961506
vn 0.4647014 -0.8750374 0.1355077
v 22.6294594 0.0000000 -29.8944607
vn 0.7786469 0.5848482 0.2272920
v 22.8865566 1.0000000 -30.1267052
vn 0.4547262 0.8557426 -0.2468375
v 22.6771145 1.0000000 -28.7827053
vn 0.6001023 0.7998604 -0.0100244
v 22.6268673 1.0000000 -29.4647903
vn 0.7076046 -0.7055109 -0.0393736
v 22.6269951 0.0000000 -29.4581776
vn 0.4648426 -0.3246411 -0.8237290
v 23.0749683 0.0000000 -28.7045479
vn 0.3163057 0.3229909 -0.8919796
v 23.0361271 1.0000000 -28.7293568
vn 0.2897762 -0.8501047 -0.4397179
v 22.6932831 0.0000000 -28.7898045
vn 0.3046503 0.7162188 -0.6278685
v 23.4349918 1.0000000 -28.4205170
vn 0.2373441 -0.8375077 -0.4921877
v 23.4479122 0.0000000 -28.4154377
vn -0.1396224 -0.7238539 -0.6756782
v 25.1138210 0.0000000 -27.8466740
vn 0.3594746 0.5579261 -0.7479951
v 24.7241039 1.0000000 -28.0920963
vn 0.2343191 -0.7109665 -0.6630394
v 24.6412468 0.0000000 -28.1244087
vn 0.1188423 -0.4360400 -0.8920458
v 25.2687988 0.0000000 -28.0286007
vn -0.1015255 0.9080945 -0.4062721
v 25.1131802 1.0000000 -27.8469524
vn 0.2294459 -0.8488749 -0.4761997
v 25.5600090 0.0000000 -27.7934837
vn -0.4639834 0.3825119 -0.7990019
v 25.2196884 1.0000000 -28.0334911
vn 0.3104816 0.5933555 -0.7426510
v 25.7870541 1.0000000 -27.7516308
vn 0.1767469 -0.5563261 -0.8119494
v 25.8982544 0.0000000 -27.7177811
vn 0.3807967 0.4579046 -0.8033165
v 26.4031963 1.0000000 -27.6091442
vn 0.5743279 -0.5666710 -0.5907888
v 26.8195190 0.0000000 -27.2797565
vn 0.2937983 -0.7154236 -0.6339178
v 26.3922863 0.0000000 -27.6199112
vn 0.4623619 0.6708374 -0.5798265
v 26.9550152 1.0000000 -27.1671696
vn 0.6618141 0.5936095 -0.4578536
v 27.2543468 1.0000000 -26.6446991
vn 0.8515868 -0.1800468 -0.4923241
v 27.0094814 0.0000000 -27.1128864
vn 0.2663027 -0.8690449 -0.4169459
v 27.0354996 0.0000000 -26.9664459
vn 0.6325190 -0.4983454 -0.5929347
v 27.2488537 0.0000000 -26.6487026
vn 0.8313709 0.0905269 -0.5482951
v 27.2382107 1.0000000 -26.8246441
vn 0.2309953 -0.4916671 -0.8395860
v 28.1415558 0.0000000 -26.5692577
vn 0.1338445 0.8099093 -0.5710803
v 27.6138077 1.0000000 -26.4769077
vn 0.0015986 -0.8112898 -0.5846420
v 27.6877403 0.0000000 -26.4626007
vn 0.5272626 -0.6033609 -0.5982891
v 28.3779659 0.0000000 -26.3410358
vn 0.2755666 0.2676006 -0.9232838
v 28.1534824 1.0000000 -26.5608711
vn 0.7391682 -0.4736010 -0.4788868
v 28.7737503 0.0000000 -26.0127010
vn 0.3629976 0.8325626 -0.4184164
v 28.3727722 1.0000000 -26.3453884
vn 0.4118997 0.8956389 -0.1678379
v 28.9832535 1.0000000 -25.2689018
vn 0.8085048 0.2473952 -0.5339622
v 28.7725163 1.0000000 -26.0398903
vn 0.5751535 -0.7846196 -0.2314535
v 28.9776154 0.0000000 -25.2804623
# 500 vertices, 0 vertices normals

f 1//1 2//2 3//3
f 3//3 2//2 4//4
f 2//2 1//1 5//5
f 5//5 1//1 6//6
f 7//7 8//8 9//9
f 9//9 8//8 10//10
f 8//8 7//7 11//11
f 11//11 7//7 12//12
f 5//5 6//6 12//12
f 12//12 6//6 11//11
f 4//4 13//13 3//3
f 3//3 13//13 14//14
f 10//10 15//15 9//9
f 9//9 15//15 16//16
f 17//17 18//18 19//19
f 19//19 18//18 20//20
f 15//15 17//17 16//16
f 16//16 17//17 19//19
f 21//21 14//14 22//22
f 22//22 14//14 13//13
f 23//23 21//21 24//24
f 24//24 21//21 22//22
f 257//257 23//23 25//25
f 25//25 23//23 24//24
f 18//18 260//260 20//20
f 20//20 260//260 261//261
f 26//26 64//64 28//28
f 26//26 28//28 27//27
f 27//27 28//28 29//29
f 27//27 29//29 32//32
f 32//32 29//29 30//30
f 30//30 33//33 31//31
f 30//30 31//31 32//32
f 31//31 33//33 34//34
f 31//31 34//34 35//35
f 35//35 34//34 37//37
f 38//38 36//36 37//37
f 37//37 36//36 35//35
f 36//36 38//38 39//39
f 39//39 38//38 41//41
f 39//39 41//41 40//40
f 40//40 41//41 42//42
f 42//42 41//41 43//43
f 42//42 43//43 44//44
f 44//44 43//43 45//45
f 44//44 45//45 46//46
f 46//46 45//45 47//47
f 46//46 47//47 48//48
f 46//46 48//48 49//49
f 49//49 48//48 51//51
f 49//49 51//51 50//50
f 50//50 51//51 52//52
f 50//50 52//52 55//55
f 55//55 52//52 53//53
f 54//54 56//56 53//53
f 53//53 56//56 55//55
f 57//57 56//56 54//54
f 57//57 54//54 58//58
f 57//57 58//58 59//59
f 59//59 58//58 60//60
f 59//59 60//60 61//61
f 61//61 60//60 62//62
f 61//61 62//62 63//63
f 63//63 62//62 64//64
f 63//63 64//64 26//26
f 66//66 65//65 67//67
f 66//66 67//67 68//68
f 68//68 67//67 500//500
f 68//68 500//500 498//498
f 70//70 69//69 65//65
f 70//70 65//65 66//66
f 72//72 71//71 69//69
f 72//72 69//69 70//70
f 73//73 74//74 75//75
f 75//75 74//74 71//71
f 75//75 71//71 72//72
f 73//73 76//76 74//74
f 78//78 77//77 79//79
f 78//78 79//79 80//80
f 80//80 79//79 82//82
f 80//80 82//82 81//81
f 81//81 82//82 83//83
f 81//81 83//83 84//84
f 84//84 83//83 85//85
f 84//84 85//85 86//86
f 86//86 85//85 76//76
f 86//86 76//76 73//73
f 91//91 88//88 87//87
f 87//87 88//88 89//89
f 87//87 89//89 90//90
f 90//90 89//89 77//77
f 90//90 77//77 78//78
f 94//94 88//88 95//95
f 95//95 88//88 91//91
f 92//92 93//93 95//95
f 95//95 93//93 94//94
f 99//99 96//96 97//97
f 92//92 97//97 93//93
f 97//97 92//92 99//99
f 96//96 99//99 100//100
f 99//99 98//98 100//100
f 101//101 102//102 98//98
f 98//98 102//102 100//100
f 107//107 103//103 104//104
f 104//104 102//102 101//101
f 103//103 102//102 104//104
f 110//110 109//109 106//106
f 110//110 106//106 105//105
f 105//105 106//106 107//107
f 107//107 106//106 103//103
f 109//109 110//110 108//108
f 108//108 110//110 114//114
f 115//115 111//111 113//113
f 115//115 113//113 112//112
f 108//108 114//114 112//112
f 108//108 112//112 113//113
f 117//117 116//116 121//121
f 111//111 115//115 116//116
f 111//111 116//116 117//117
f 119//119 118//118 120//120
f 119//119 120//120 121//121
f 121//121 120//120 117//117
f 124//124 122//122 118//118
f 124//124 118//118 119//119
f 123//123 122//122 124//124
f 133//133 125//125 126//126
f 126//126 125//125 127//127
f 126//126 127//127 128//128
f 128//128 127//127 129//129
f 128//128 129//129 123//123
f 123//123 129//129 122//122
f 130//130 135//135 131//131
f 130//130 131//131 132//132
f 132//132 131//131 125//125
f 132//132 125//125 133//133
f 136//136 134//134 135//135
f 136//136 135//135 130//130
f 138//138 137//137 134//134
f 138//138 134//134 136//136
f 140//140 139//139 137//137
f 140//140 137//137 138//138
f 142//142 141//141 143//143
f 142//142 143//143 140//140
f 140//140 143//143 139//139
f 144//144 145//145 146//146
f 144//144 146//146 147//147
f 147//147 146//146 149//149
f 147//147 149//149 148//148
f 148//148 149//149 150//150
f 148//148 150//150 151//151
f 151//151 150//150 141//141
f 151//151 141//141 142//142
f 152//152 153//153 145//145
f 152//152 145//145 144//144
f 155//155 154//154 153//153
f 155//155 153//153 152//152
f 158//158 154//154 155//155
f 163//163 162//162 157//157
f 157//157 162//162 156//156
f 157//157 156//156 158//158
f 157//157 158//158 159//159
f 159//159 158//158 155//155
f 160//160 161//161 162//162
f 160//160 162//162 163//163
f 167//167 164//164 165//165
f 165//165 164//164 161//161
f 165//165 161//161 160//160
f 166//166 174//174 168//168
f 166//166 168//168 167//167
f 167//167 168//168 164//164
f 169//169 171//171 170//170
f 170//170 171//171 172//172
f 172//172 171//171 173//173
f 173//173 171//171 174//174
f 173//173 174//174 166//166
f 181//181 176//176 182//182
f 182//182 176//176 175//175
f 175//175 176//176 169//169
f 175//175 169//169 170//170
f 178//178 177//177 180//180
f 178//178 180//180 179//179
f 179//179 180//180 181//181
f 179//179 181//181 182//182
f 183//183 184//184 185//185
f 185//185 184//184 177//177
f 185//185 177//177 178//178
f 187//187 186//186 184//184
f 187//187 184//184 183//183
f 188//188 186//186 183//183
f 183//183 186//186 187//187
f 189//189 192//192 188//188
f 189//189 188//188 183//183
f 191//191 190//190 192//192
f 191//191 192//192 189//189
f 195//195 193//193 191//191
f 191//191 193//193 190//190
f 197//197 196//196 194//194
f 197//197 194//194 200//200
f 193//193 195//195 196//196
f 195//195 194//194 196//196
f 201//201 197//197 200//200
f 198//198 199//199 201//201
f 198//198 201//201 200//200
f 199//199 198//198 202//202
f 202//202 198//198 204//204
f 207//207 203//203 209//209
f 209//209 203//203 205//205
f 203//203 202//202 205//205
f 205//205 202//202 204//204
f 206//206 209//209 208//208
f 209//209 206//206 207//207
f 211//211 210//210 212//212
f 211//211 212//212 213//213
f 213//213 212//212 214//214
f 213//213 214//214 216//216
f 213//213 216//216 215//215
f 215//215 216//216 206//206
f 215//215 206//206 208//208
f 218//218 217//217 219//219
f 218//218 219//219 220//220
f 220//220 219//219 210//210
f 220//220 210//210 211//211
f 223//223 224//224 218//218
f 218//218 224//224 217//217
f 226//226 225//225 221//221
f 221//221 225//225 222//222
f 221//221 222//222 223//223
f 223//223 222//222 224//224
f 231//231 227//227 226//226
f 226//226 227//227 225//225
f 228//228 229//229 230//230
f 231//231 229//229 227//227
f 230//230 232//232 228//228
f 231//231 230//230 229//229
f 237//237 236//236 233//233
f 237//237 233//233 232//232
f 232//232 233//233 228//228
f 234//234 235//235 236//236
f 234//234 236//236 237//237
f 238//238 243//243 239//239
f 239//239 243//243 240//240
f 239//239 240//240 235//235
f 239//239 235//235 234//234
f 245//245 242//242 241//241
f 241//241 242//242 238//238
f 238//238 242//242 243//243
f 242//242 245//245 244//244
f 246//246 244//244 245//245
f 246//246 248//248 247//247
f 247//247 244//244 246//246
f 251//251 247//247 248//248
f 250//250 249//249 251//251
f 250//250 251//251 252//252
f 252//252 251//251 248//248
f 253//253 249//249 250//250
f 253//253 250//250 254//254
f 253//253 254//254 255//255
f 256//256 255//255 259//259
f 259//259 255//255 254//254
f 257//257 25//25 258//258
f 257//257 258//258 259//259
f 259//259 258//258 256//256
f 262//262 263//263 261//261
f 262//262 261//261 260//260
f 266//266 263//263 264//264
f 264//264 263//263 262//262
f 267//267 265//265 266//266
f 267//267 266//266 264//264
f 267//267 269//269 265//265
f 269//269 267//267 270//270
f 269//269 270//270 268//268
f 273//273 268//268 271//271
f 270//270 271//271 268//268
f 273//273 271//271 274//274
f 275//275 272//272 273//273
f 275//275 273//273 274//274
f 276//276 277//277 278//278
f 278//278 277//277 279//279
f 278//278 279//279 280//280
f 280//280 279//279 272//272
f 280//280 272//272 275//275
f 283//283 281//281 276//276
f 276//276 281//281 277//277
f 286//286 284//284 282//282
f 286//286 282//282 283//283
f 283//283 282//282 281//281
f 287//287 284//284 286//286
f 285//285 287//287 286//286
f 285//285 288//288 287//287
f 288//288 285//285 291//291
f 291//291 289//289 288//288
f 292//292 289//289 290//290
f 290//290 289//289 291//291
f 290//290 293//293 292//292
f 296//296 295//295 293//293
f 295//295 292//292 293//293
f 301//301 294//294 295//295
f 295//295 296//296 301//301
f 303//303 298//298 297//297
f 297//297 298//298 299//299
f 297//297 299//299 300//300
f 300//300 299//299 294//294
f 300//300 294//294 301//301
f 302//302 306//306 303//303
f 303//303 306//306 298//298
f 305//305 304//304 302//302
f 302//302 304//304 306//306
f 311//311 308//308 307//307
f 307//307 308//308 304//304
f 307//307 304//304 305//305
f 312//312 309//309 310//310
f 312//312 310//310 311//311
f 311//311 310//310 308//308
f 314//314 313//313 312//312
f 312//312 313//313 309//309
f 315//315 316//316 317//317
f 317//317 316//316 318//318
f 317//317 318//318 319//319
f 317//317 319//319 320//320
f 320//320 319//319 313//313
f 320//320 313//313 314//314
f 325//325 324//324 315//315
f 315//315 324//324 316//316
f 329//329 321//321 322//322
f 329//329 322//322 323//323
f 323//323 322//322 324//324
f 323//323 324//324 325//325
f 334//334 326//326 328//328
f 328//328 326//326 327//327
f 328//328 327//327 321//321
f 328//328 321//321 329//329
f 330//330 331//331 333//333
f 333//333 331//331 332//332
f 333//333 332//332 326//326
f 333//333 326//326 334//334
f 337//337 331//331 330//330
f 345//345 335//335 336//336
f 330//330 336//336 337//337
f 337//337 336//336 335//335
f 348//348 338//338 339//339
f 339//339 338//338 340//340
f 339//339 340//340 341//341
f 341//341 340//340 342//342
f 341//341 342//342 343//343
f 343//343 342//342 344//344
f 343//343 344//344 345//345
f 345//345 344//344 335//335
f 346//346 350//350 347//347
f 346//346 347//347 348//348
f 347//347 338//338 348//348
f 349//349 354//354 350//350
f 349//349 350//350 351//351
f 351//351 350//350 346//346
f 355//355 356//356 353//353
f 353//353 356//356 352//352
f 353//353 352//352 349//349
f 349//349 352//352 354//354
f 357//357 358//358 355//355
f 355//355 358//358 356//356
f 357//357 360//360 358//358
f 363//363 359//359 362//362
f 362//362 359//359 361//361
f 361//361 359//359 360//360
f 361//361 360//360 357//357
f 363//363 364//364 366//366
f 363//363 366//366 365//365
f 363//363 362//362 364//364
f 368//368 367//367 366//366
f 366//366 367//367 365//365
f 370//370 369//369 367//367
f 370//370 367//367 368//368
f 371//371 369//369 370//370
f 374//374 375//375 369//369
f 374//374 369//369 371//371
f 372//372 373//373 374//374
f 374//374 373//373 375//375
f 377//377 376//376 373//373
f 377//377 373//373 372//372
f 380//380 376//376 379//379
f 379//379 376//376 377//377
f 381//381 378//378 380//380
f 381//381 380//380 379//379
f 384//384 383//383 378//378
f 384//384 378//378 381//381
f 385//385 386//386 382//382
f 385//385 382//382 384//384
f 384//384 382//382 383//383
f 385//385 387//387 386//386
f 386//386 387//387 388//388
f 386//386 388//388 389//389
f 390//390 391//391 392//392
f 392//392 389//389 388//388
f 392//392 388//388 393//393
f 392//392 393//393 390//390
f 398//398 394//394 391//391
f 398//398 391//391 390//390
f 404//404 397//397 395//395
f 395//395 397//397 396//396
f 396//396 397//397 398//398
f 398//398 397//397 394//394
f 405//405 406//406 399//399
f 399//399 406//406 400//400
f 399//399 400//400 402//402
f 399//399 402//402 401//401
f 401//401 402//402 403//403
f 403//403 402//402 404//404
f 403//403 404//404 395//395
f 409//409 408//408 405//405
f 405//405 408//408 406//406
f 407//407 411//411 408//408
f 407//407 408//408 409//409
f 410//410 413//413 411//411
f 410//410 411//411 407//407
f 413//413 410//410 412//412
f 412//412 410//410 416//416
f 418//418 414//414 415//415
f 415//415 414//414 416//416
f 416//416 414//414 412//412
f 417//417 418//418 415//415
f 419//419 420//420 417//417
f 417//417 420//420 418//418
f 425//425 421//421 426//426
f 426//426 421//421 423//423
f 423//423 421//421 422//422
f 423//423 422//422 420//420
f 423//423 420//420 419//419
f 424//424 429//429 425//425
f 424//424 425//425 426//426
f 432//432 427//427 428//428
f 428//428 427//427 429//429
f 428//428 429//429 424//424
f 434//434 430//430 431//431
f 431//431 430//430 433//433
f 431//431 433//433 432//432
f 432//432 433//433 427//427
f 435//435 436//436 430//430
f 435//435 430//430 434//434
f 439//439 436//436 435//435
f 446//446 437//437 439//439
f 446//446 439//439 438//438
f 438//438 439//439 435//435
f 440//440 441//441 442//442
f 440//440 442//442 443//443
f 443//443 442//442 445//445
f 445//445 442//442 444//444
f 445//445 444//444 437//437
f 445//445 437//437 446//446
f 447//447 450//450 448//448
f 448//448 450//450 449//449
f 449//449 450//450 451//451
f 449//449 451//451 452//452
f 452//452 451//451 453//453
f 452//452 453//453 454//454
f 454//454 453//453 455//455
f 454//454 455//455 456//456
f 456//456 455//455 441//441
f 456//456 441//441 440//440
f 464//464 457//457 459//459
f 464//464 459//459 458//458
f 458//458 459//459 460//460
f 458//458 460//460 461//461
f 461//461 460//460 447//447
f 461//461 447//447 448//448
f 462//462 463//463 457//457
f 462//462 457//457 464//464
f 465//465 470//470 467//467
f 465//465 467//467 466//466
f 466//466 467//467 463//463
f 466//466 463//463 462//462
f 469//469 468//468 470//470
f 469//469 470//470 465//465
f 475//475 472//472 471//471
f 471//471 472//472 468//468
f 471//471 468//468 469//469
f 477//477 473//473 474//474
f 474//474 473//473 475//475
f 474//474 475//475 471//471
f 476//476 473//473 479//479
f 477//477 479//479 473//473
f 476//476 479//479 480//480
f 476//476 480//480 478//478
f 480//480 481//481 478//478
f 482//482 484//484 481//481
f 482//482 481//481 480//480
f 485//485 483//483 482//482
f 482//482 483//483 484//484
f 488//488 485//485 487//487
f 485//485 488//488 483//483
f 486//486 487//487 485//485
f 488//488 487//487 486//486
f 486//486 490//490 488//488
f 486//486 489//489 490//490
f 486//486 492//492 489//489
f 490//490 489//489 488//488
f 495//495 491//491 493//493
f 495//495 493//493 492//492
f 492//492 493//493 489//489
f 497//497 494//494 495//495
f 495//495 494//494 491//491
f 499//499 496//496 494//494
f 499//499 494//494 497//497
f 498//498 500//500 499//499
f 499//499 500//500 496//496
f 73//73 26//26 86//86
f 86//86 26//26 27//27
f 86//86 27//27 349//349
f 349//349 27//27 32//32
f 349//349 32//32 353//353
f 32//32 31//31 353//353
f 353//353 31//31 35//35
f 353//353 35//35 36//36
f 36//36 39//39 353//353
f 353//353 39//39 355//355
f 39//39 40//40 355//355
f 355//355 40//40 42//42
f 42//42 44//44 355//355
f 355//355 44//44 357//357
f 357//357 44//44 361//361
f 361//361 44//44 46//46
f 361//361 46//46 362//362
f 362//362 46//46 49//49
f 362//362 49//49 415//415
f 362//362 415//415 364//364
f 364//364 415//415 366//366
f 415//415 49//49 417//417
f 417//417 49//49 423//423
f 417//417 423//423 419//419
f 49//49 471//471 465//465
f 49//49 465//465 434//434
f 50//50 471//471 49//49
f 471//471 50//50 474//474
f 498//498 50//50 68//68
f 68//68 50//50 55//55
f 68//68 55//55 56//56
f 68//68 56//56 57//57
f 68//68 57//57 66//66
f 66//66 57//57 70//70
f 70//70 57//57 59//59
f 70//70 59//59 72//72
f 72//72 59//59 61//61
f 72//72 61//61 75//75
f 75//75 61//61 63//63
f 75//75 63//63 73//73
f 73//73 63//63 26//26
f 50//50 498//498 492//492
f 498//498 499//499 497//497
f 498//498 497//497 492//492
f 492//492 497//497 495//495
f 492//492 486//486 50//50
f 50//50 486//486 485//485
f 485//485 482//482 50//50
f 482//482 480//480 50//50
f 50//50 480//480 477//477
f 477//477 480//480 479//479
f 477//477 474//474 50//50
f 465//465 471//471 469//469
f 465//465 466//466 434//434
f 434//434 466//466 456//456
f 456//456 466//466 454//454
f 454//454 466//466 462//462
f 462//462 448//448 452//452
f 462//462 464//464 448//448
f 448//448 464//464 458//458
f 448//448 458//458 461//461
f 448//448 449//449 452//452
f 462//462 452//452 454//454
f 434//434 456//456 440//440
f 440//440 443//443 434//434
f 445//445 435//435 443//443
f 443//443 435//435 434//434
f 435//435 445//445 438//438
f 438//438 445//445 446//446
f 434//434 431//431 432//432
f 432//432 428//428 434//434
f 434//434 428//428 49//49
f 49//49 428//428 423//423
f 428//428 424//424 423//423
f 423//423 424//424 426//426
f 410//410 415//415 416//416
f 415//415 410//410 407//407
f 407//407 374//374 371//371
f 374//374 407//407 409//409
f 374//374 409//409 405//405
f 374//374 405//405 372//372
f 372//372 405//405 377//377
f 377//377 405//405 399//399
f 377//377 399//399 395//395
f 399//399 401//401 395//395
f 401//401 403//403 395//395
f 396//396 379//379 395//395
f 379//379 396//396 398//398
f 379//379 398//398 390//390
f 390//390 393//393 388//388
f 390//390 388//388 379//379
f 379//379 388//388 384//384
f 384//384 388//388 387//387
f 384//384 387//387 385//385
f 379//379 384//384 381//381
f 379//379 377//377 395//395
f 407//407 371//371 370//370
f 407//407 370//370 415//415
f 415//415 370//370 368//368
f 415//415 368//368 366//366
f 349//349 351//351 86//86
f 86//86 351//351 84//84
f 84//84 351//351 346//346
f 84//84 346//346 348//348
f 84//84 348//348 81//81
f 348//348 339//339 81//81
f 81//81 339//339 341//341
f 81//81 341//341 80//80
f 80//80 341//341 343//343
f 80//80 343//343 78//78
f 78//78 343//343 90//90
f 90//90 343//343 114//114
f 343//343 345//345 114//114
f 114//114 345//345 112//112
f 112//112 345//345 115//115
f 115//115 345//345 336//336
f 115//115 336//336 116//116
f 116//116 336//336 121//121
f 121//121 336//336 330//330
f 121//121 330//330 119//119
f 119//119 330//330 333//333
f 333//333 124//124 119//119
f 124//124 333//333 123//123
f 123//123 333//333 334//334
f 123//123 334//334 128//128
f 128//128 334//334 328//328
f 128//128 328//328 126//126
f 126//126 328//328 133//133
f 133//133 328//328 132//132
f 132//132 328//328 329//329
f 132//132 329//329 130//130
f 130//130 329//329 323//323
f 130//130 323//323 136//136
f 136//136 323//323 325//325
f 136//136 325//325 138//138
f 138//138 325//325 315//315
f 138//138 315//315 140//140
f 140//140 315//315 142//142
f 142//142 315//315 317//317
f 142//142 317//317 151//151
f 151//151 317//317 148//148
f 148//148 317//317 320//320
f 148//148 320//320 147//147
f 147//147 320//320 144//144
f 314//314 152//152 320//320
f 320//320 152//152 144//144
f 314//314 312//312 152//152
f 152//152 312//312 155//155
f 155//155 312//312 311//311
f 155//155 311//311 307//307
f 155//155 307//307 159//159
f 159//159 307//307 157//157
f 307//307 305//305 157//157
f 157//157 305//305 302//302
f 157//157 302//302 163//163
f 163//163 302//302 160//160
f 160//160 302//302 303//303
f 160//160 303//303 165//165
f 165//165 303//303 297//297
f 165//165 297//297 167//167
f 167//167 297//297 300//300
f 167//167 300//300 166//166
f 166//166 300//300 301//301
f 166//166 301//301 296//296
f 296//296 173//173 166//166
f 173//173 296//296 172//172
f 172//172 296//296 293//293
f 172//172 293//293 290//290
f 172//172 290//290 170//170
f 170//170 290//290 291//291
f 170//170 291//291 285//285
f 170//170 285//285 182//182
f 285//285 286//286 182//182
f 182//182 286//286 232//232
f 232//232 286//286 283//283
f 232//232 283//283 276//276
f 232//232 276//276 234//234
f 234//234 276//276 278//278
f 280//280 239//239 278//278
f 238//238 280//280 241//241
f 241//241 280//280 275//275
f 241//241 275//275 274//274
f 241//241 274//274 270//270
f 270//270 274//274 271//271
f 270//270 246//246 241//241
f 246//246 270//270 267//267
f 267//267 248//248 246//246
f 267//267 252//252 248//248
f 252//252 267//267 262//262
f 252//252 262//262 254//254
f 267//267 264//264 262//262
f 254//254 262//262 257//257
f 257//257 262//262 23//23
f 23//23 262//262 260//260
f 23//23 260//260 18//18
f 23//23 18//18 10//10
f 10//10 18//18 17//17
f 10//10 17//17 15//15
f 8//8 1//1 10//10
f 10//10 1//1 3//3
f 10//10 3//3 23//23
f 23//23 3//3 21//21
f 21//21 3//3 14//14
f 11//11 6//6 8//8
f 8//8 6//6 1//1
f 259//259 254//254 257//257
f 252//252 254//254 250//250
f 241//241 246//246 245//245
f 280//280 238//238 239//239
f 278//278 239//239 234//234
f 237//237 232//232 234//234
f 232//232 230//230 231//231
f 232//232 231//231 182//182
f 231//231 226//226 182//182
f 182//182 226//226 221//221
f 223//223 191//191 221//221
f 221//221 191//191 179//179
f 179//179 191//191 178//178
f 178//178 191//191 189//189
f 178//178 189//189 185//185
f 185//185 189//189 183//183
f 223//223 218//218 191//191
f 218//218 220//220 191//191
f 220//220 211//211 191//191
f 191//191 211//211 195//195
f 195//195 211//211 213//213
f 213//213 215//215 195//195
f 195//195 215//215 200//200
f 200//200 215//215 208//208
f 200//200 208//208 198//198
f 198//198 208//208 209//209
f 198//198 209//209 204//204
f 204//204 209//209 205//205
f 194//194 195//195 200//200
f 179//179 182//182 221//221
f 182//182 175//175 170//170
f 114//114 110//110 90//90
f 110//110 98//98 87//87
f 110//110 87//87 90//90
f 98//98 110//110 105//105
f 98//98 105//105 101//101
f 101//101 105//105 107//107
f 107//107 104//104 101//101
f 95//95 98//98 92//92
f 98//98 99//99 92//92
f 95//95 91//91 98//98
f 98//98 91//91 87//87
f 64//64 85//85 28//28
f 28//28 85//85 354//354
f 85//85 64//64 76//76
f 76//76 64//64 74//74
f 74//74 64//64 62//62
f 74//74 62//62 71//71
f 71//71 62//62 60//60
f 71//71 60//60 69//69
f 69//69 60//60 58//58
f 69//69 58//58 54//54
f 69//69 54//54 65//65
f 65//65 54//54 67//67
f 67//67 54//54 53//53
f 67//67 53//53 52//52
f 67//67 52//52 500//500
f 500//500 52//52 51//51
f 500//500 51//51 493//493
f 500//500 493//493 494//494
f 475//475 51//51 48//48
f 47//47 359//359 48//48
f 48//48 359//359 363//363
f 359//359 47//47 45//45
f 359//359 45//45 360//360
f 360//360 45//45 43//43
f 360//360 43//43 358//358
f 358//358 43//43 356//356
f 356//356 43//43 41//41
f 356//356 41//41 38//38
f 356//356 38//38 352//352
f 38//38 37//37 352//352
f 352//352 37//37 34//34
f 34//34 33//33 352//352
f 33//33 30//30 352//352
f 352//352 30//30 29//29
f 352//352 29//29 354//354
f 354//354 29//29 28//28
f 354//354 85//85 350//350
f 350//350 85//85 83//83
f 347//347 83//83 82//82
f 347//347 82//82 338//338
f 338//338 82//82 340//340
f 340//340 82//82 79//79
f 340//340 79//79 342//342
f 342//342 79//79 77//77
f 77//77 89//89 342//342
f 342//342 89//89 108//108
f 342//342 108//108 344//344
f 88//88 109//109 89//89
f 109//109 88//88 100//100
f 100//100 88//88 94//94
f 100//100 94//94 93//93
f 100//100 93//93 96//96
f 93//93 97//97 96//96
f 100//100 103//103 109//109
f 103//103 100//100 102//102
f 103//103 106//106 109//109
f 89//89 109//109 108//108
f 344//344 108//108 113//113
f 344//344 113//113 111//111
f 344//344 111//111 335//335
f 335//335 111//111 117//117
f 335//335 117//117 337//337
f 337//337 117//117 120//120
f 337//337 120//120 331//331
f 331//331 120//120 118//118
f 331//331 118//118 122//122
f 331//331 122//122 332//332
f 332//332 122//122 326//326
f 326//326 122//122 129//129
f 326//326 129//129 127//127
f 326//326 127//127 327//327
f 327//327 127//127 125//125
f 327//327 125//125 131//131
f 327//327 131//131 321//321
f 321//321 131//131 135//135
f 321//321 135//135 322//322
f 322//322 135//135 324//324
f 324//324 135//135 134//134
f 324//324 134//134 137//137
f 324//324 137//137 316//316
f 316//316 137//137 139//139
f 316//316 139//139 143//143
f 316//316 143//143 141//141
f 316//316 141//141 318//318
f 318//318 141//141 150//150
f 318//318 150//150 149//149
f 318//318 149//149 319//319
f 319//319 149//149 146//146
f 319//319 146//146 145//145
f 319//319 145//145 313//313
f 313//313 145//145 153//153
f 313//313 153//153 309//309
f 309//309 153//153 154//154
f 309//309 154//154 310//310
f 310//310 154//154 308//308
f 308//308 154//154 158//158
f 308//308 158//158 156//156
f 308//308 156//156 304//304
f 304//304 156//156 306//306
f 306//306 156//156 162//162
f 306//306 162//162 161//161
f 306//306 161//161 298//298
f 298//298 161//161 164//164
f 298//298 164//164 168//168
f 298//298 168//168 299//299
f 299//299 168//168 294//294
f 294//294 168//168 174//174
f 294//294 174//174 295//295
f 295//295 174//174 171//171
f 295//295 171//171 292//292
f 292//292 171//171 169//169
f 292//292 169//169 289//289
f 289//289 169//169 288//288
f 169//169 176//176 181//181
f 169//169 181//181 287//287
f 287//287 181//181 282//282
f 225//225 181//181 222//222
f 222//222 181//181 180//180
f 222//222 180//180 192//192
f 192//192 180//180 177//177
f 192//192 177//177 184//184
f 192//192 184//184 188//188
f 188//188 184//184 186//186
f 192//192 190//190 222//222
f 222//222 190//190 224//224
f 190//190 217//217 224//224
f 193//193 219//219 190//190
f 193//193 212//212 210//210
f 193//193 197//197 216//216
f 197//197 193//193 196//196
f 197//197 201//201 199//199
f 197//197 199//199 206//206
f 206//206 199//199 202//202
f 206//206 202//202 207//207
f 207//207 202//202 203//203
f 206//206 216//216 197//197
f 216//216 214//214 193//193
f 214//214 212//212 193//193
f 210//210 219//219 193//193
f 190//190 219//219 217//217
f 181//181 225//225 227//227
f 181//181 227//227 228//228
f 228//228 227//227 229//229
f 228//228 235//235 281//281
f 228//228 281//281 282//282
f 235//235 228//228 233//233
f 235//235 233//233 236//236
f 235//235 240//240 277//277
f 277//277 240//240 243//243
f 277//277 243//243 279//279
f 279//279 243//243 272//272
f 272//272 243//243 242//242
f 242//242 269//269 273//273
f 242//242 273//273 272//272
f 269//269 242//242 244//244
f 269//269 244//244 247//247
f 247//247 265//265 269//269
f 265//265 247//247 251//251
f 265//265 251//251 263//263
f 263//263 251//251 255//255
f 255//255 251//251 253//253
f 253//253 251//251 249//249
f 256//256 25//25 255//255
f 255//255 25//25 263//263
f 25//25 256//256 258//258
f 24//24 263//263 25//25
f 22//22 4//4 24//24
f 24//24 4//4 9//9
f 24//24 9//9 20//20
f 20//20 9//9 19//19
f 19//19 9//9 16//16
f 22//22 13//13 4//4
f 9//9 4//4 7//7
f 7//7 4//4 2//2
f 7//7 2//2 12//12
f 12//12 2//2 5//5
f 20//20 261//261 24//24
f 261//261 263//263 24//24
f 265//265 263//263 266//266
f 273//273 269//269 268//268
f 235//235 277//277 281//281
f 228//228 282//282 181//181
f 284//284 287//287 282//282
f 287//287 288//288 169//169
f 347//347 350//350 83//83
f 48//48 363//363 418//418
f 418//418 363//363 365//365
f 418//418 365//365 367//367
f 418//418 367//367 411//411
f 411//411 367//367 369//369
f 411//411 369//369 375//375
f 411//411 375//375 408//408
f 408//408 375//375 406//406
f 406//406 375//375 373//373
f 406//406 373//373 376//376
f 406//406 376//376 400//400
f 400//400 376//376 404//404
f 400//400 404//404 402//402
f 376//376 380//380 404//404
f 404//404 380//380 397//397
f 397//397 380//380 394//394
f 380//380 378//378 383//383
f 380//380 383//383 389//389
f 389//389 383//383 386//386
f 386//386 383//383 382//382
f 380//380 389//389 391//391
f 391//391 389//389 392//392
f 418//418 411//411 414//414
f 414//414 411//411 413//413
f 414//414 413//413 412//412
f 48//48 418//418 422//422
f 48//48 422//422 427//427
f 427//427 422//422 429//429
f 429//429 422//422 421//421
f 429//429 421//421 425//425
f 422//422 418//418 420//420
f 48//48 427//427 430//430
f 48//48 430//430 470//470
f 470//470 430//430 467//467
f 467//467 430//430 455//455
f 467//467 455//455 463//463
f 463//463 455//455 453//453
f 427//427 433//433 430//430
f 442//442 430//430 436//436
f 442//442 436//436 444//444
f 444//444 436//436 439//439
f 444//444 439//439 437//437
f 442//442 441//441 430//430
f 430//430 441//441 455//455
f 463//463 453//453 451//451
f 463//463 451//451 447//447
f 447//447 451//451 450//450
f 447//447 460//460 459//459
f 447//447 459//459 457//457
f 457//457 463//463 447//447
f 470//470 468//468 472//472
f 470//470 472//472 48//48
f 48//48 472//472 475//475
f 51//51 475//475 473//473
f 51//51 473//473 478//478
f 478//478 473//473 476//476
f 478//478 481//481 51//51
f 51//51 481//481 484//484
f 51//51 484//484 483//483
f 483//483 488//488 51//51
f 51//51 488//488 489//489
f 51//51 489//489 493//493
f 493//493 491//491 494//494
f 500//500 494//494 496//496
f 394//394 380//380 391//391
# 1000 faces, 0 coords texture

# End of File
