# Blender 4.0.0
# www.blender.org
mtllib untitled.mtl
o Deer_body
v -0.113062 1.226099 0.550330
v 0.019779 1.254707 0.600472
v 0.010104 1.218374 0.279463
v -0.002425 1.194115 -0.166640
v -0.227738 1.072958 -0.094553
v -0.136204 1.249417 -0.421715
v -0.008004 1.228155 -0.425072
v 0.017221 1.057235 0.766215
v -0.134177 1.062459 0.699438
v 0.006415 0.795697 0.702453
v -0.149621 1.086097 -0.550394
v -0.019707 1.081447 -0.676288
v -0.028130 0.707273 -0.498786
v -0.016268 0.648421 0.032701
v -0.003913 0.767171 0.346119
v 0.147498 1.216997 0.543507
v 0.217350 1.057410 -0.106208
v 0.121367 1.240420 -0.428460
v 0.164916 1.052011 0.691606
v 0.116618 1.076797 -0.557365
vn -0.6337 0.7420 0.2190
vn 0.0426 0.9101 0.4121
vn 0.0332 0.9974 -0.0637
vn 0.0384 0.9882 0.1483
vn -0.9762 0.2155 0.0235
vn -0.4920 0.8497 -0.1895
vn 0.0289 0.9786 -0.2036
vn 0.0327 0.2035 0.9785
vn -0.7974 0.0731 0.5991
vn -0.0159 -0.8494 0.5275
vn -0.8594 0.0683 -0.5066
vn -0.0200 0.1661 -0.9859
vn -0.0433 -0.8612 -0.5064
vn -0.9020 -0.4222 0.0904
vn -0.8805 -0.4598 0.1155
vn 0.6945 0.6956 0.1842
vn 0.9888 0.1469 -0.0280
vn 0.5395 0.8137 -0.2166
vn 0.8307 0.0162 0.5564
vn 0.8345 0.0091 -0.5510
vn 0.8738 -0.4842 0.0439
vn 0.8511 -0.5202 0.0701
vt 0.316828 0.887384
vt 0.211686 0.990924
vt 0.479934 0.990481
vt 0.629964 0.986810
vt 0.604119 0.725444
vt 0.770520 0.881249
vt 0.802865 0.985583
vt 0.006370 0.820796
vt 0.186201 0.678702
vt 0.058607 0.470526
vt 0.841511 0.786784
vt 0.912104 0.880396
vt 0.988180 0.454740
vt 0.549386 0.430885
vt 0.297303 0.443493
vt 0.604120 0.725444
s 1
usemtl c_deer
f 1/1/1 2/2/2 3/3/3
f 3/3/3 4/4/4 1/1/1
f 5/5/5 1/1/1 4/4/4
f 6/6/6 4/4/4 7/7/7
f 4/4/4 6/6/6 5/5/5
f 8/8/8 9/9/9 10/10/10
f 9/9/9 8/8/8 2/2/2
f 2/2/2 1/1/1 9/9/9
f 11/11/11 12/12/12 13/13/13
f 12/12/12 11/11/11 6/6/6
f 6/6/6 7/7/7 12/12/12
f 13/13/13 14/14/14 5/5/5
f 5/5/5 11/11/11 13/13/13
f 14/14/14 15/15/15 5/5/5
f 15/15/15 10/10/10 9/9/9
f 9/9/9 5/5/5 15/15/15
f 5/5/5 6/6/6 11/11/11
f 5/5/5 9/9/9 1/1/1
f 2/2/2 16/1/16 3/3/3
f 4/4/4 3/3/3 16/1/16
f 16/1/16 17/16/17 4/4/4
f 4/4/4 18/6/18 7/7/7
f 18/6/18 4/4/4 17/16/17
f 19/9/19 8/8/8 10/10/10
f 8/8/8 19/9/19 2/2/2
f 16/1/16 2/2/2 19/9/19
f 12/12/12 20/11/20 13/13/13
f 20/11/20 12/12/12 18/6/18
f 7/7/7 18/6/18 12/12/12
f 14/14/21 13/13/13 17/16/17
f 20/11/20 17/16/17 13/13/13
f 15/15/22 14/14/21 17/16/17
f 10/10/10 15/15/22 19/9/19
f 17/16/17 19/9/19 15/15/22
f 18/6/18 17/16/17 20/11/20
f 19/9/19 17/16/17 16/1/16
o Deer_tail
v -0.011982 1.149464 0.813693
v -0.021644 1.119038 0.711675
v 0.055151 1.116341 0.709624
v 0.053098 1.147178 0.811954
v 0.008501 1.219549 0.899512
v 0.042183 1.218367 0.898613
v 0.058525 1.161737 0.646629
v -0.025181 1.164677 0.648865
vn -0.0189 -0.8883 0.4588
vn -0.0394 -0.9826 -0.1815
vn 0.5932 -0.7953 -0.1244
vn 0.6841 -0.6227 0.3798
vn -0.2311 0.9553 -0.1846
vn 0.2864 0.9386 -0.1924
vn 0.5133 0.8414 -0.1689
vn -0.4622 0.8772 -0.1299
vn -0.0102 -0.7733 0.6340
vn -0.0441 -0.8094 -0.5856
vn -0.9894 0.0991 0.1058
vn -0.9635 0.2676 0.0115
vt 0.455550 0.619022
vt 0.366673 0.679516
vt 0.657010 0.679516
vt 0.595762 0.611776
vt 0.457865 0.544720
vt 0.526346 0.544720
vt 0.577199 0.780125
vt 0.407012 0.780125
s 1
usemtl c_deer
f 21/17/23 22/18/24 23/19/25
f 23/19/25 24/20/26 21/17/23
f 25/21/27 26/22/28 27/23/29
f 27/23/29 28/24/30 25/21/27
f 21/17/23 24/20/26 26/22/31
f 26/22/31 25/21/31 21/17/23
f 24/20/26 23/19/25 27/23/29
f 27/23/29 26/22/28 24/20/26
f 23/19/25 22/18/24 28/24/32
f 28/24/32 27/23/32 23/19/25
f 22/18/33 21/17/34 25/21/27
f 25/21/27 28/24/30 22/18/33
o Deer_Rhaunch
v 0.137985 1.120216 0.620910
v 0.207446 1.082662 0.452007
v 0.101985 1.108721 0.439445
v 0.124394 0.962624 0.366595
v 0.145685 0.710974 0.403826
v 0.092428 0.875604 0.749181
v 0.110716 0.527491 0.687474
v 0.288549 0.937996 0.554418
v 0.211727 0.549995 0.547252
vn 0.6863 0.6047 0.4042
vn 0.6656 0.5963 -0.4487
vn 0.2618 0.7982 -0.5425
vn 0.6528 0.0841 -0.7529
vn -0.9817 -0.1210 0.1468
vn -0.9895 -0.0993 -0.1053
vn -0.9820 -0.1314 -0.1353
vn -0.9985 -0.0534 0.0114
vn -0.9467 0.0074 -0.3222
vn -0.9203 -0.2412 -0.3081
vn 0.7987 -0.1126 -0.5910
vn 0.9893 0.1184 0.0848
vn 0.6979 0.0388 0.7152
vn -0.5465 -0.6709 -0.5013
vn 0.7768 -0.1373 0.6146
vn 0.9551 -0.1932 0.2247
vt 0.060684 0.907815
vt 0.193429 0.900740
vt 0.194387 0.989248
vt 0.279149 0.814749
vt 0.260946 0.573389
vt 0.006143 0.701831
vt 0.008794 0.433956
vt 0.134266 0.736627
vt 0.121664 0.444865
s 1
usemtl c_deer
f 29/25/35 30/26/36 31/27/37
f 32/28/38 31/27/37 30/26/36
f 31/27/39 32/28/40 33/29/41
f 33/29/41 29/25/42 31/27/39
f 34/30/43 29/25/42 35/31/44
f 29/25/42 33/29/41 35/31/44
f 32/28/38 30/26/36 33/29/45
f 36/32/46 33/29/45 30/26/36
f 30/26/36 29/25/35 36/32/46
f 34/30/47 36/32/46 29/25/35
f 33/29/41 37/33/48 35/31/44
f 36/32/46 34/30/47 35/31/49
f 36/32/46 35/31/49 37/33/50
f 33/29/45 36/32/46 37/33/50
o Deer_Rbackmidleg
v 0.112617 0.623414 0.753372
v 0.190191 0.687565 0.693211
v 0.110157 0.679374 0.688965
v 0.193924 0.627176 0.564363
v 0.127916 0.633470 0.543318
v 0.114102 0.358072 0.624888
v 0.169516 0.363760 0.627364
v 0.112507 0.372563 0.594112
v 0.148657 0.376275 0.595727
vn -0.3595 0.0673 0.9307
vn 0.6318 0.7006 0.3316
vn -0.6688 0.7327 0.1258
vn 0.7393 0.3114 -0.5971
vn -0.4109 0.4055 -0.8166
vn -0.5292 -0.8070 0.2622
vn 0.6452 -0.7373 0.2000
vn 0.1191 -0.6051 -0.7872
vn 0.3635 -0.5144 -0.7767
vn -0.9999 -0.0108 -0.0003
vt 0.065823 0.605432
vt 0.116729 0.609155
vt 0.117060 0.608917
vt 0.156458 0.531540
vt 0.211323 0.531180
vt 0.008696 0.427573
vt 0.036326 0.427573
vt 0.116091 0.426333
vt 0.066752 0.423918
s 1
usemtl c_deer
f 38/34/51 39/35/52 40/36/53
f 39/35/52 41/37/54 42/38/55
f 42/38/55 40/36/53 39/35/52
f 43/39/56 44/40/57 38/34/51
f 44/40/57 43/39/56 45/41/58
f 45/41/58 46/42/59 44/40/57
f 40/36/53 42/38/55 45/41/60
f 45/41/60 38/34/51 40/36/53
f 45/41/60 43/39/56 38/34/51
f 41/37/54 45/41/58 42/38/55
f 45/41/58 41/37/54 46/42/59
f 41/37/54 39/35/52 44/40/57
f 38/34/51 44/40/57 39/35/52
f 44/40/57 46/42/59 41/37/54
o Deer_Rbacklowleg
v 0.172452 0.327560 0.640786
v 0.162461 0.418576 0.648853
v 0.108637 0.419578 0.647400
v 0.119830 0.322504 0.633751
v 0.139945 0.432689 0.594594
v 0.204220 0.114210 0.508623
v 0.153817 0.109152 0.503261
v 0.183117 0.116818 0.462573
v 0.160272 0.262753 0.516751
v 0.171267 0.157278 0.468663
vn 0.6104 -0.1907 0.7688
vn 0.6197 0.5252 0.5833
vn -0.0379 0.4614 0.8864
vn -0.0894 -0.3497 0.9326
vn 0.7582 0.6347 -0.1495
vn 0.0227 -0.8339 0.5514
vn -0.6637 -0.7372 0.1268
vn -0.5434 -0.6621 -0.5161
vn -0.9047 0.0541 -0.4225
vn -0.8667 0.1183 -0.4845
vn -0.9311 0.0534 -0.3608
vn -0.9504 -0.0405 -0.3083
vn -0.8967 0.0047 -0.4426
vn 0.8919 0.2813 -0.3540
vn 0.8950 0.2725 -0.3532
vn 0.8688 0.2860 -0.4041
vn 0.8084 0.3119 -0.4993
vt 0.088488 0.588929
vt 0.039368 0.642998
vt 0.039249 0.647697
vt 0.065995 0.593369
vt 0.008209 0.633044
vt 0.102865 0.433156
vt 0.075235 0.437987
vt 0.052073 0.425025
vt 0.028508 0.519000
vt 0.028756 0.448102
s 1
usemtl c_deer
f 47/43/61 48/44/62 49/45/63
f 49/45/63 50/46/64 47/43/61
f 51/47/65 49/45/63 48/44/62
f 52/48/66 53/49/67 54/50/68
f 50/46/64 52/48/66 47/43/61
f 52/48/66 50/46/64 53/49/67
f 49/45/69 51/47/70 55/51/71
f 55/51/71 50/46/72 49/45/69
f 54/50/68 53/49/67 56/52/73
f 50/46/72 55/51/71 56/52/73
f 56/52/73 53/49/67 50/46/72
f 48/44/62 55/51/74 51/47/65
f 48/44/62 47/43/61 52/48/75
f 55/51/74 52/48/75 54/50/76
f 54/50/76 56/52/77 55/51/74
f 52/48/75 55/51/74 48/44/62
o Deer_Rbackhoof
v 0.180863 0.167445 0.473688
v 0.151945 0.131168 0.512064
v 0.209782 0.131168 0.512064
v 0.220272 -0.001227 0.437650
v 0.140457 -0.001227 0.437650
v 0.128995 -0.003048 0.318310
v 0.242603 -0.003048 0.355649
vn 0.0018 0.9917 -0.1286
vn -0.6432 0.2458 0.7252
vn 0.6375 0.2513 0.7283
vn 0.5195 -0.7012 0.4883
vn -0.6003 -0.6687 0.4388
vn -0.0035 -0.9998 0.0179
vn 0.7353 -0.3790 -0.5618
vn -0.3990 0.6387 -0.6580
vt 0.499457 0.316527
vt 0.528391 0.335060
vt 0.574638 0.338541
vt 0.687770 0.262177
vt 0.661822 0.245937
vt 0.719114 0.233580
vt 0.708265 0.209715
s 1
usemtl c_deer
f 57/53/78 58/54/79 59/55/80
f 60/56/81 61/57/82 62/58/83
f 62/58/83 63/59/84 60/56/81
f 58/54/79 60/56/81 59/55/80
f 60/56/81 58/54/79 61/57/82
f 58/54/79 57/53/78 62/58/85
f 58/54/79 62/58/85 61/57/82
f 63/59/84 62/58/85 57/53/78
f 57/53/78 59/55/80 63/59/84
f 63/59/84 59/55/80 60/56/81
o Deer_Rfrontupperleg
v 0.202639 1.077244 -0.272425
v 0.129923 1.053718 -0.409844
v 0.048898 1.071933 -0.379731
v 0.121364 1.084346 -0.192931
v 0.023241 0.989479 -0.437537
v 0.144276 0.899678 -0.113732
v 0.257798 0.889977 -0.221972
v 0.022965 0.769900 -0.312982
v 0.132340 0.767832 -0.323967
v 0.172156 1.026905 -0.371716
v 0.103169 0.696277 -0.256362
vn 0.6930 0.7198 0.0409
vn 0.3955 0.4329 -0.8100
vn -0.6200 0.7601 -0.1944
vn -0.2119 0.7297 0.6501
vn -0.6081 0.0442 -0.7926
vn -0.0601 -0.0496 0.9970
vn 0.9721 -0.1659 0.1656
vn -0.8593 -0.0633 0.5076
vn 0.4316 -0.5571 -0.7095
vn -0.0933 -0.5587 -0.8241
vn 0.7463 0.0783 -0.6610
vn -0.0427 -0.9854 0.1649
vt 0.708113 0.778326
vt 0.802755 0.802883
vt 0.803068 0.812081
vt 0.635623 0.779297
vt 0.871335 0.725187
vt 0.583510 0.601874
vt 0.655313 0.600575
vt 0.833691 0.487341
vt 0.778678 0.502461
vt 0.755080 0.670945
vt 0.684429 0.458225
s 1
usemtl c_deer
f 64/60/86 65/61/87 66/62/88
f 66/62/88 67/63/89 64/60/86
f 68/64/90 66/62/88 65/61/87
f 64/60/86 67/63/89 69/65/91
f 69/65/91 70/66/92 64/60/86
f 67/63/89 66/62/88 71/67/93
f 71/67/93 69/65/91 67/63/89
f 66/62/88 68/64/90 71/67/93
f 72/68/94 71/67/95 68/64/90
f 68/64/90 65/61/87 73/69/96
f 73/69/96 72/68/94 68/64/90
f 65/61/87 64/60/86 73/69/96
f 70/66/92 73/69/96 64/60/86
f 72/68/94 73/69/96 70/66/92
f 74/70/97 71/67/95 72/68/94
f 69/65/91 74/70/97 70/66/92
f 74/70/97 69/65/91 71/67/93
f 70/66/92 74/70/97 72/68/94
o Deer_Rfrontmidleg
v 0.115105 0.494760 -0.390101
v 0.040050 0.494787 -0.382677
v 0.037032 0.518893 -0.457341
v 0.119613 0.520044 -0.423568
v 0.191097 0.771262 -0.237864
v 0.079079 0.734535 -0.185990
v 0.038825 0.801885 -0.376623
v 0.145491 0.792181 -0.351806
v 0.127324 0.864771 -0.221071
vn 0.5545 -0.8091 0.1945
vn 0.0997 -0.9397 0.3273
vn 0.3003 -0.3527 -0.8862
vn 0.7334 -0.2882 -0.6157
vn 0.9270 0.0234 0.3744
vn -0.3745 -0.1832 0.9090
vn -0.9919 0.0434 0.1192
vn -0.9921 0.1017 0.0729
vn -0.6212 0.5610 -0.5472
vn 0.6244 0.4614 -0.6303
vn 0.0710 0.8871 0.4560
vt 0.794913 0.434722
vt 0.718525 0.434333
vt 0.876927 0.418776
vt 0.838611 0.428861
vt 0.788815 0.663377
vt 0.685436 0.681584
vt 0.969907 0.609682
vt 0.914894 0.603063
vt 0.814463 0.740501
s 1
usemtl c_deer
f 75/71/98 76/72/99 77/73/100
f 77/73/100 78/74/101 75/71/98
f 79/75/102 80/76/103 76/72/99
f 76/72/99 75/71/98 79/75/102
f 77/73/104 76/72/105 80/76/103
f 81/77/106 82/78/107 78/74/101
f 78/74/101 77/73/100 81/77/106
f 75/71/98 78/74/101 82/78/107
f 75/71/98 82/78/107 79/75/102
f 77/73/104 80/76/103 81/77/106
f 81/77/106 83/79/108 82/78/107
f 83/79/108 81/77/106 80/76/103
f 79/75/102 83/79/108 80/76/103
f 79/75/102 82/78/107 83/79/108
o Deer_Rfrontlowleg
v 0.119651 0.515397 -0.376002
v 0.082664 0.577882 -0.416185
v 0.037058 0.520952 -0.376066
v 0.037897 0.501928 -0.454371
v 0.089072 0.126894 -0.369987
v 0.050936 0.124989 -0.369933
v 0.047349 0.097903 -0.432250
v 0.090328 0.100193 -0.424613
v 0.041863 0.247041 -0.387768
v 0.095036 0.249697 -0.387844
v 0.050282 0.290692 -0.427093
v 0.119199 0.523024 -0.426313
v 0.088419 0.292597 -0.427147
vn 0.6989 0.2296 0.6774
vn 0.0494 0.9912 -0.1231
vn -0.6785 0.3541 0.6437
vn -0.5685 0.2069 -0.7962
vn 0.5751 -0.3853 0.7217
vn -0.5367 -0.4250 0.7289
vn -0.5012 -0.7006 -0.5079
vn 0.5989 -0.7058 -0.3784
vn -0.7890 0.0281 0.6138
vn 0.7791 0.0171 0.6266
vn -0.5966 -0.0850 -0.7980
vn 0.8092 0.2432 -0.5349
vn 0.6238 -0.0802 -0.7774
vt 0.992011 0.505771
vt 0.923449 0.437619
vt 0.952172 0.499813
vt 0.870061 0.521108
vt 0.987399 0.939508
vt 0.901214 0.971522
vt 0.857365 0.973529
vt 0.960957 0.803429
vt 0.988586 0.805844
vt 0.860464 0.768509
vt 0.906908 0.501230
vt 0.909803 0.756432
s 1
usemtl c_deer
f 84/80/109 85/81/110 86/82/111
f 87/83/112 86/82/111 85/81/110
f 88/84/113 89/84/114 90/85/115
f 90/85/115 91/86/116 88/84/113
f 84/80/109 86/82/111 92/87/117
f 92/87/117 93/88/118 84/80/109
f 93/88/118 92/87/117 89/84/114
f 89/84/114 88/84/113 93/88/118
f 87/83/112 92/87/117 86/82/111
f 92/87/117 94/89/119 90/85/115
f 90/85/115 89/84/114 92/87/117
f 87/83/112 94/89/119 92/87/117
f 87/83/112 95/90/120 96/91/121
f 96/91/121 94/89/119 87/83/112
f 94/89/119 96/91/121 91/86/116
f 91/86/116 90/85/115 94/89/119
f 84/80/109 96/91/121 95/90/120
f 96/91/121 93/88/118 91/86/116
f 84/80/109 93/88/118 96/91/121
f 88/84/113 91/86/116 93/88/118
f 87/83/112 85/81/110 95/90/120
f 84/80/109 95/90/120 85/81/110
o Deer_Rfronthoof
v 0.093453 0.058225 -0.369982
v 0.071090 0.118284 -0.379620
v 0.021892 -0.005658 -0.405573
v 0.120288 -0.005659 -0.405573
v 0.042952 -0.006162 -0.508109
v 0.118538 -0.006162 -0.482507
v 0.060455 0.118283 -0.427121
vn -0.2839 -0.2040 0.9369
vn -0.8965 0.1230 0.4257
vn -0.7843 -0.4977 0.3705
vn -0.0006 -0.8939 0.4482
vn -0.0009 -1.0000 0.0056
vn -0.0022 -1.0000 0.0066
vn -0.9758 -0.0049 0.2185
vn -0.9417 0.3201 -0.1038
vn 0.6667 0.5399 -0.5138
vn 0.2786 0.4960 -0.8224
vn 0.8438 0.4437 -0.3020
vn 0.9272 0.3119 -0.2076
vn 0.9107 0.3990 -0.1066
vn 0.9025 0.4287 -0.0401
vt 0.624785 0.299653
vt 0.570786 0.339348
vt 0.683234 0.252263
vt 0.650071 0.236424
vt 0.718164 0.244573
vt 0.702702 0.232815
vt 0.570360 0.313401
s 1
usemtl c_deer
f 97/92/122 98/93/123 99/94/124
f 99/94/124 100/95/125 97/92/122
f 100/95/125 99/94/124 101/96/126
f 101/96/126 102/97/127 100/95/125
f 98/93/123 103/98/128 101/96/129
f 101/96/129 99/94/124 98/93/123
f 102/97/130 101/96/131 103/98/132
f 103/98/132 98/93/133 97/92/134
f 100/95/135 102/97/130 103/98/132
f 97/92/134 100/95/135 103/98/132
o Deer_Lhaunch
v -0.177519 1.100731 0.463740
v -0.131460 1.131462 0.641977
v -0.070964 1.133293 0.466060
v -0.075088 0.992275 0.382161
v -0.084879 0.737763 0.409535
v -0.084154 0.881429 0.759872
v -0.072798 0.537840 0.675356
v -0.261290 0.946071 0.546290
v -0.157340 0.564208 0.525259
vn -0.6423 0.5836 -0.4968
vn -0.7648 0.5400 0.3514
vn -0.2380 0.8164 -0.5262
vn -0.5648 0.0841 -0.8209
vn 0.9992 -0.0370 0.0131
vn 0.9611 -0.0719 0.2666
vn 0.9979 -0.0630 -0.0180
vn 0.9903 0.0043 0.1391
vn 0.9737 0.0843 -0.2119
vn 0.9639 -0.1640 -0.2098
vn -0.6941 -0.1208 -0.7097
vn -0.9979 0.0521 -0.0396
vn -0.7762 -0.0509 0.6284
vn 0.6556 -0.5889 -0.4727
vn -0.8332 -0.2250 0.5052
vn -0.9600 -0.2661 0.0866
vt 0.193429 0.900740
vt 0.060684 0.907815
vt 0.194387 0.989248
vt 0.279149 0.814749
vt 0.260946 0.573389
vt 0.006143 0.701831
vt 0.008794 0.433956
vt 0.134266 0.736627
vt 0.121664 0.444865
s 1
usemtl c_deer
f 104/99/136 105/100/137 106/101/138
f 106/101/138 107/102/139 104/99/136
f 107/102/140 106/101/141 108/103/142
f 105/100/143 108/103/142 106/101/141
f 105/100/143 109/104/144 110/105/145
f 108/103/142 105/100/143 110/105/145
f 104/99/136 107/102/139 108/103/146
f 108/103/146 111/106/147 104/99/136
f 105/100/137 104/99/136 111/106/147
f 111/106/147 109/104/148 105/100/137
f 112/107/149 108/103/142 110/105/145
f 109/104/148 111/106/147 110/105/150
f 110/105/150 111/106/147 112/107/151
f 111/106/147 108/103/146 112/107/151
o Deer_Lbackmidleg
v -0.159516 0.685065 0.606835
v -0.075982 0.677211 0.688767
v -0.079278 0.678651 0.603484
v -0.163075 0.555854 0.547216
v -0.098316 0.549257 0.522674
v -0.116969 0.399142 0.765414
v -0.061398 0.394986 0.763461
v -0.063742 0.382884 0.727648
v -0.099994 0.385596 0.728922
vn -0.6679 0.7282 -0.1540
vn 0.3832 0.6651 0.6410
vn 0.6212 0.6629 -0.4179
vn -0.7781 -0.1707 -0.6045
vn 0.3574 -0.2020 -0.9118
vn -0.5804 -0.4221 0.6964
vn -0.0069 -0.4996 0.8662
vn -0.1009 -0.9818 -0.1610
vn -0.3862 -0.9009 -0.1980
vn 0.9951 0.0185 -0.0972
vn 0.9966 0.0314 -0.0758
vt 0.116729 0.609155
vt 0.065823 0.605432
vt 0.117060 0.608917
vt 0.156458 0.531540
vt 0.211323 0.531180
vt 0.036326 0.427573
vt 0.008696 0.427573
vt 0.116091 0.426333
vt 0.066752 0.423918
s 1
usemtl c_deer
f 113/108/152 114/109/153 115/110/154
f 116/111/155 113/108/152 117/112/156
f 115/110/154 117/112/156 113/108/152
f 118/113/157 119/114/158 114/109/153
f 119/114/158 118/113/157 120/115/159
f 121/116/160 120/115/159 118/113/157
f 117/112/156 115/110/154 120/115/161
f 114/109/153 120/115/161 115/110/154
f 119/114/162 120/115/161 114/109/153
f 120/115/159 116/111/155 117/112/156
f 116/111/155 120/115/159 121/116/160
f 113/108/152 116/111/155 118/113/157
f 118/113/157 114/109/153 113/108/152
f 121/116/160 118/113/157 116/111/155
o Deer_Lbacklowleg
v -0.113156 0.453154 0.741641
v -0.116531 0.383182 0.801152
v -0.059590 0.458624 0.740739
v -0.063278 0.380346 0.800687
v -0.086901 0.426742 0.694067
v -0.071862 0.135739 0.862295
v -0.122762 0.137625 0.861627
v -0.097895 0.108925 0.828002
v -0.089333 0.251218 0.761419
v -0.089257 0.142830 0.804422
vn -0.7011 0.7128 0.0201
vn -0.6623 0.3492 0.6629
vn -0.0700 0.9553 0.2871
vn 0.0292 0.4310 0.9019
vn -0.7813 0.2520 -0.5711
vn 0.6974 -0.3497 0.6256
vn -0.0175 -0.1884 0.9819
vn 0.6282 -0.7681 0.1237
vn 0.8967 -0.1694 -0.4090
vn 0.9331 -0.1656 -0.3192
vn 0.9546 -0.1205 -0.2723
vn 0.9745 -0.1453 -0.1711
vn 0.9288 -0.2145 -0.3023
vn -0.8728 -0.1537 -0.4632
vn -0.8760 -0.1590 -0.4553
vn -0.8420 -0.1863 -0.5063
vn -0.7358 -0.2502 -0.6293
vt 0.039368 0.642998
vt 0.088488 0.588929
vt 0.039249 0.647697
vt 0.065995 0.593369
vt 0.008209 0.633044
vt 0.075235 0.437987
vt 0.102865 0.433156
vt 0.052073 0.425025
vt 0.028508 0.519000
vt 0.028756 0.448102
s 1
usemtl c_deer
f 122/117/163 123/118/164 124/119/165
f 125/120/166 124/119/165 123/118/164
f 124/119/165 126/121/167 122/117/163
f 127/122/168 128/123/169 129/124/170
f 128/123/169 125/120/166 123/118/164
f 125/120/166 128/123/169 127/122/168
f 126/121/171 124/119/172 130/125/173
f 125/120/174 130/125/173 124/119/172
f 127/122/168 129/124/170 131/126/175
f 130/125/173 125/120/174 131/126/175
f 127/122/168 131/126/175 125/120/174
f 130/125/176 122/117/163 126/121/167
f 123/118/164 122/117/163 128/123/177
f 128/123/177 130/125/176 129/124/178
f 131/126/179 129/124/178 130/125/176
f 130/125/176 128/123/177 122/117/163
o Deer_Lbackhoof
v -0.068902 0.126895 0.861542
v -0.097820 0.163172 0.823166
v -0.126738 0.126895 0.861542
v -0.057414 -0.005500 0.787128
v -0.137229 -0.005500 0.787128
v -0.045952 -0.007321 0.666749
v -0.159559 -0.007321 0.704087
vn 0.6430 0.2457 0.7253
vn -0.0017 0.9919 -0.1272
vn -0.6373 0.2512 0.7285
vn 0.6006 -0.6686 0.4385
vn -0.5210 -0.7007 0.4874
vn 0.0035 -0.9998 0.0177
vn -0.7347 -0.3778 -0.5635
vn 0.3974 0.6412 -0.6564
vt 0.528391 0.335060
vt 0.499457 0.316527
vt 0.574638 0.338541
vt 0.661822 0.245937
vt 0.687770 0.262177
vt 0.719114 0.233580
vt 0.708265 0.209715
s 1
usemtl c_deer
f 132/127/180 133/128/181 134/129/182
f 135/130/183 136/131/184 137/132/185
f 138/133/186 137/132/185 136/131/184
f 136/131/184 132/127/180 134/129/182
f 132/127/180 136/131/184 135/130/183
f 133/128/181 132/127/180 137/132/187
f 137/132/187 132/127/180 135/130/183
f 137/132/187 138/133/186 133/128/181
f 134/129/182 133/128/181 138/133/186
f 134/129/182 138/133/186 136/131/184
o Deer_Lfrontupperleg
v -0.167144 1.055419 -0.404063
v -0.213197 1.094195 -0.257739
v -0.082979 1.079919 -0.393127
v -0.118575 1.114030 -0.197499
v -0.064883 0.993773 -0.443201
v -0.115233 0.941301 -0.094212
v -0.246865 0.914172 -0.175661
v -0.027709 0.790906 -0.296885
v -0.136840 0.783962 -0.285489
v -0.196129 1.033820 -0.354170
v -0.093867 0.722365 -0.217251
vn -0.5887 0.2810 -0.7579
vn -0.7175 0.6914 0.0852
vn 0.5263 0.7482 -0.4041
vn 0.2924 0.8136 0.5026
vn 0.4374 -0.0378 -0.8985
vn 0.2558 0.0809 0.9633
vn -0.9135 -0.1706 0.3693
vn 0.9420 0.0220 0.3350
vn -0.0376 -0.6517 -0.7575
vn -0.5289 -0.6480 -0.5481
vn -0.8665 -0.0593 -0.4956
vn 0.1122 -0.9576 0.2654
vt 0.802755 0.802883
vt 0.708113 0.778326
vt 0.803068 0.812081
vt 0.635623 0.779297
vt 0.871335 0.725187
vt 0.583510 0.601874
vt 0.655313 0.600575
vt 0.833691 0.487341
vt 0.778678 0.502461
vt 0.755080 0.670945
vt 0.684429 0.458225
s 1
usemtl c_deer
f 139/134/188 140/135/189 141/136/190
f 142/137/191 141/136/190 140/135/189
f 141/136/190 143/138/192 139/134/188
f 142/137/191 140/135/189 144/139/193
f 145/140/194 144/139/193 140/135/189
f 141/136/190 142/137/191 146/141/195
f 144/139/193 146/141/195 142/137/191
f 143/138/192 141/136/190 146/141/195
f 146/141/196 147/142/197 143/138/192
f 139/134/188 143/138/192 148/143/198
f 147/142/197 148/143/198 143/138/192
f 140/135/189 139/134/188 148/143/198
f 148/143/198 145/140/194 140/135/189
f 148/143/198 147/142/197 145/140/194
f 146/141/196 149/144/199 147/142/197
f 149/144/199 144/139/193 145/140/194
f 144/139/193 149/144/199 146/141/195
f 149/144/199 145/140/194 147/142/197
o Deer_Lfrontmidleg
v -0.027441 0.508228 -0.250045
v -0.102425 0.502533 -0.255820
v -0.025776 0.508459 -0.328544
v -0.108232 0.516141 -0.295327
v -0.077540 0.791719 -0.136968
v -0.189834 0.805933 -0.196604
v -0.147063 0.795775 -0.309870
v -0.041052 0.802246 -0.338288
v -0.132107 0.905032 -0.207765
vn -0.0557 -0.7969 0.6015
vn -0.5143 -0.7336 0.4442
vn -0.2850 -0.6203 -0.7307
vn -0.7202 -0.4957 -0.4854
vn -0.4786 -0.1550 0.8642
vn -0.9291 0.0830 0.3603
vn 0.9859 0.1657 0.0214
vn 0.9887 0.1237 0.0842
vn 0.9412 0.2919 0.1702
vn -0.6486 0.2199 -0.7287
vn 0.5927 0.3959 -0.7014
vn -0.1183 0.9766 0.1794
vt 0.718525 0.434333
vt 0.794913 0.434722
vt 0.876927 0.418776
vt 0.838611 0.428861
vt 0.685436 0.681584
vt 0.788815 0.663377
vt 0.914894 0.603063
vt 0.969907 0.609682
vt 0.814463 0.740501
s 1
usemtl c_deer
f 150/145/200 151/146/201 152/147/202
f 153/148/203 152/147/202 151/146/201
f 154/149/204 155/150/205 150/145/200
f 151/146/201 150/145/200 155/150/205
f 150/145/206 152/147/207 154/149/208
f 156/151/209 157/152/210 153/148/203
f 152/147/202 153/148/203 157/152/210
f 153/148/203 151/146/201 156/151/209
f 156/151/209 151/146/201 155/150/205
f 154/149/208 152/147/207 157/152/210
f 158/153/211 157/152/210 156/151/209
f 157/152/210 158/153/211 154/149/208
f 158/153/211 155/150/205 154/149/204
f 156/151/209 155/150/205 158/153/211
o Deer_Lfrontlowleg
v -0.074097 0.575491 -0.296999
v -0.107939 0.518855 -0.248059
v -0.025710 0.528201 -0.249948
v -0.025805 0.495978 -0.323574
v -0.020461 0.139200 -0.174674
v -0.058645 0.139268 -0.174654
v -0.015713 0.101775 -0.232431
v -0.058734 0.103344 -0.224728
v -0.017324 0.256696 -0.213044
v -0.070563 0.256790 -0.213016
v -0.027928 0.292159 -0.260770
v -0.107967 0.517729 -0.298794
v -0.066113 0.292226 -0.260750
vn -0.0964 0.9576 -0.2715
vn -0.7096 0.3063 0.6345
vn 0.6648 0.4893 0.5645
vn 0.5553 0.0972 -0.8260
vn 0.5584 -0.2705 0.7842
vn -0.5541 -0.2850 0.7821
vn 0.5326 -0.7525 -0.3874
vn -0.5659 -0.7870 -0.2457
vn 0.7852 0.1714 0.5950
vn -0.7749 0.0891 0.6258
vn 0.6033 -0.1910 -0.7743
vn -0.8180 0.1136 -0.5639
vn -0.6232 -0.2425 -0.7435
vt 0.923449 0.437619
vt 0.992011 0.505771
vt 0.952172 0.499813
vt 0.870061 0.521108
vt 0.987399 0.939508
vt 0.901214 0.971522
vt 0.857365 0.973529
vt 0.960957 0.803429
vt 0.988586 0.805844
vt 0.860464 0.768509
vt 0.906908 0.501230
vt 0.909803 0.756432
s 1
usemtl c_deer
f 159/154/212 160/155/213 161/156/214
f 161/156/214 162/157/215 159/154/212
f 163/158/216 164/158/217 165/159/218
f 166/160/219 165/159/218 164/158/217
f 161/156/214 160/155/213 167/161/220
f 168/162/221 167/161/220 160/155/213
f 167/161/220 168/162/221 163/158/216
f 164/158/217 163/158/216 168/162/221
f 167/161/220 162/157/215 161/156/214
f 169/163/222 167/161/220 165/159/218
f 163/158/216 165/159/218 167/161/220
f 169/163/222 162/157/215 167/161/220
f 170/164/223 162/157/215 171/165/224
f 169/163/222 171/165/224 162/157/215
f 171/165/224 169/163/222 166/160/219
f 165/159/218 166/160/219 169/163/222
f 171/165/224 160/155/213 170/164/223
f 168/162/221 171/165/224 166/160/219
f 168/162/221 160/155/213 171/165/224
f 166/160/219 164/158/217 168/162/221
f 159/154/212 162/157/215 170/164/223
f 170/164/223 160/155/213 159/154/212
o Deer_Lfronthoof
v -0.040346 0.125413 -0.183303
v -0.062709 0.065355 -0.173293
v 0.008852 0.001471 -0.208884
v -0.089544 0.001471 -0.208884
v -0.012209 0.000968 -0.311620
v -0.087795 0.000968 -0.286016
v -0.029711 0.125413 -0.231990
vn 0.8974 0.1272 0.4224
vn 0.2860 -0.2016 0.9368
vn 0.7841 -0.4976 0.3709
vn 0.0006 -0.8939 0.4482
vn 0.0009 -1.0000 0.0056
vn 0.0022 -1.0000 0.0066
vn 0.9770 0.0009 0.2134
vn 0.9422 0.3188 -0.1026
vn -0.2798 0.4892 -0.8261
vn -0.6699 0.5358 -0.5140
vn -0.8444 0.4428 -0.3016
vn -0.9282 0.3118 -0.2028
vn -0.9113 0.3981 -0.1049
vn -0.9027 0.4284 -0.0399
vt 0.570786 0.339348
vt 0.624785 0.299653
vt 0.671101 0.242364
vt 0.650071 0.236424
vt 0.718164 0.244573
vt 0.702702 0.232815
vt 0.570360 0.313401
s 1
usemtl c_deer
f 172/166/225 173/167/226 174/168/227
f 175/169/228 174/168/227 173/167/226
f 174/168/227 175/169/228 176/170/229
f 177/171/230 176/170/229 175/169/228
f 178/172/231 172/166/225 176/170/232
f 174/168/227 176/170/232 172/166/225
f 176/170/233 177/171/234 178/172/235
f 172/166/236 178/172/235 173/167/237
f 177/171/234 175/169/238 178/172/235
f 175/169/238 173/167/237 178/172/235
o Deer_neckbase
v -0.132500 1.170459 -0.510857
v -0.113523 0.996020 -0.573250
v -0.018006 0.957845 -0.446439
v -0.009149 1.210589 -0.445392
v -0.024907 0.855132 -0.572955
v -0.024657 0.975933 -0.724584
v -0.116047 1.261861 -0.619349
v -0.007745 1.294310 -0.503444
v -0.009069 1.362797 -0.645380
v -0.020239 1.124719 -0.754333
v 0.073181 0.989498 -0.578139
v 0.110641 1.161037 -0.517070
v 0.091796 1.254091 -0.625129
vn -0.8830 0.1524 0.4439
vn -0.9449 -0.3272 -0.0125
vn 0.0027 -0.5050 0.8631
vn 0.0310 0.3201 0.9469
vn -0.8462 -0.5322 0.0264
vn -0.8523 -0.2293 -0.4701
vn -0.8672 0.4505 -0.2123
vn 0.0419 0.7777 0.6272
vn 0.0257 0.9496 -0.3124
vn -0.0271 -0.0186 -0.9995
vn 0.9155 -0.3969 -0.0655
vn 0.9177 0.0877 0.3875
vn 0.8073 -0.5900 -0.0169
vn 0.8085 -0.2874 -0.5135
vn 0.8816 0.3908 -0.2646
vt 0.754568 0.671513
vt 0.808193 0.514955
vt 0.728287 0.521451
vt 0.677257 0.729808
vt 0.816011 0.430524
vt 0.931515 0.457031
vt 0.863705 0.736896
vt 0.769226 0.831702
vt 0.914474 0.822894
vt 0.965130 0.580874
vt 0.754568 0.671512
s 1
usemtl c_deer
f 179/173/239 180/174/240 181/175/241
f 181/175/241 182/176/242 179/173/239
f 183/177/243 180/174/240 184/178/244
f 183/177/243 181/175/241 180/174/240
f 185/179/245 186/180/246 187/181/247
f 185/179/245 187/181/247 188/182/248
f 179/173/239 182/176/242 186/180/246
f 186/180/246 185/179/245 179/173/239
f 184/178/244 180/174/240 188/182/248
f 185/179/245 188/182/248 180/174/240
f 180/174/240 179/173/239 185/179/245
f 189/174/249 190/183/250 181/175/241
f 182/176/242 181/175/241 190/183/250
f 189/174/249 183/177/251 184/178/252
f 181/175/241 183/177/251 189/174/249
f 186/180/246 191/179/253 187/181/247
f 187/181/247 191/179/253 188/182/248
f 182/176/242 190/183/250 186/180/246
f 191/179/253 186/180/246 190/183/250
f 189/174/249 184/178/252 188/182/248
f 188/182/248 191/179/253 189/174/249
f 190/183/250 189/174/249 191/179/253
o Deer_neckend
v -0.002904 1.447700 -0.523227
v -0.120431 1.259218 -0.638135
v -0.007933 1.292948 -0.508797
v -0.015613 1.147974 -0.608700
v -0.020273 1.125116 -0.756183
v -0.111143 1.377642 -0.668686
v -0.005157 1.479717 -0.651968
v -0.013014 1.366086 -0.800430
v -0.014881 1.280147 -0.757079
v 0.095329 1.255942 -0.637844
v 0.092433 1.370530 -0.674017
vn -0.8028 0.3833 0.4566
vn -0.9728 -0.2162 0.0837
vn 0.0098 -0.1839 0.9829
vn -0.0154 -0.8687 0.4950
vn -0.8723 -0.3691 -0.3208
vn -0.9311 0.3309 -0.1532
vn 0.0307 0.9889 -0.1451
vn -0.0202 0.1621 -0.9866
vn -0.7660 -0.1164 -0.6322
vn 0.9583 -0.2791 0.0611
vn 0.8456 0.3335 0.4168
vn 0.8363 -0.4165 -0.3565
vn 0.9409 0.2633 -0.2129
vn 0.7318 -0.1747 -0.6588
vt 0.725522 0.898861
vt 0.874424 0.627547
vt 0.704569 0.665426
vt 0.843843 0.524405
vt 0.979721 0.497802
vt 0.888025 0.787791
vt 0.897083 0.905679
vt 0.985735 0.830936
vt 0.988149 0.724702
s 1
usemtl c_deer
f 192/184/254 193/185/255 194/186/256
f 195/187/257 193/185/255 196/188/258
f 195/187/257 194/186/256 193/185/255
f 197/189/259 198/190/260 199/191/261
f 197/189/259 199/191/261 200/192/262
f 198/190/260 197/189/259 192/184/254
f 196/188/258 193/185/255 200/192/262
f 197/189/259 200/192/262 193/185/255
f 193/185/255 192/184/254 197/189/259
f 201/185/263 192/184/264 194/186/256
f 201/185/263 195/187/257 196/188/265
f 194/186/256 195/187/257 201/185/263
f 198/190/260 202/189/266 199/191/261
f 199/191/261 202/189/266 200/192/267
f 202/189/266 198/190/260 192/184/264
f 201/185/263 196/188/265 200/192/267
f 200/192/267 202/189/266 201/185/263
f 192/184/264 201/185/263 202/189/266
o Deer_head
v -0.003651 1.438979 -0.540088
v -0.109591 1.377213 -0.677965
v -0.009662 1.340894 -0.638806
v -0.079674 1.386083 -0.833635
v -0.014009 1.363804 -0.835354
v -0.051114 1.345631 -0.923733
v -0.017943 1.331524 -0.942529
v -0.071741 1.644957 -0.608707
v 0.002695 1.661278 -0.594313
v -0.003289 1.620923 -0.768979
v -0.089850 1.605333 -0.766712
v -0.016374 1.416786 -0.996360
v -0.047778 1.417896 -0.981250
v -0.011779 1.474137 -0.897389
v 0.001972 1.577070 -0.509595
v -0.095327 1.580439 -0.538822
v -0.154674 1.721446 -0.488668
v -0.064112 1.675164 -0.547099
v -0.085778 1.684394 -0.567870
v -0.107214 1.581494 -0.559453
v -0.059044 1.597718 -0.610534
v 0.090372 1.370227 -0.683201
v 0.053050 1.381446 -0.837110
v 0.017069 1.343249 -0.925519
v 0.074957 1.639832 -0.612548
v 0.081975 1.599331 -0.771212
v 0.015778 1.415676 -0.982915
v 0.097607 1.573700 -0.543874
v 0.072684 1.670386 -0.550682
v 0.169183 1.710132 -0.497149
v 0.093825 1.678120 -0.572573
v 0.058919 1.593597 -0.613623
v 0.108444 1.573960 -0.565100
vn 0.0044 -0.5170 0.8559
vn -0.8205 -0.5518 0.1496
vn -0.0222 -0.9229 0.3843
vn -0.8725 -0.4476 -0.1961
vn -0.0325 -0.9956 0.0881
vn -0.6835 -0.7191 -0.1256
vn -0.0424 -0.9172 -0.3962
vn -0.6338 0.7630 0.1269
vn 0.0409 0.9575 0.2857
vn 0.0172 0.8669 -0.4982
vn -0.7084 0.5901 -0.3871
vn -0.0185 0.2046 -0.9787
vn -0.7090 0.2572 -0.6567
vn 0.0062 0.7081 -0.7061
vn 0.0343 0.2580 0.9655
vn -0.7606 0.2405 0.6031
vn 0.4299 0.9016 -0.0478
vn 0.8840 0.3248 0.3362
vn 0.5953 0.7503 -0.2876
vn 0.6110 -0.3732 0.6982
vn 0.8696 -0.2776 0.4084
vn 0.4042 -0.3000 0.8641
vn -0.7316 0.0972 -0.6748
vn -0.7351 0.0983 -0.6708
vn -0.7283 0.0962 -0.6785
vn -0.7395 0.0996 -0.6657
vn 0.7867 -0.6079 0.1075
vn 0.8277 -0.5070 -0.2406
vn 0.6242 -0.7648 -0.1598
vn 0.6912 0.7167 0.0922
vn 0.7267 0.5400 -0.4247
vn 0.6899 0.2083 -0.6933
vn 0.8060 0.1858 0.5621
vn -0.8404 0.3851 0.3813
vn -0.3679 0.9295 -0.0269
vn -0.5557 0.7905 -0.2574
vn -0.8643 -0.2170 0.4538
vn -0.5982 -0.3310 0.7298
vn -0.3784 -0.2726 0.8846
vn 0.7041 0.0480 -0.7084
vn 0.7003 0.0472 -0.7123
vn 0.6967 0.0464 -0.7158
vn 0.7088 0.0490 -0.7037
vt 0.028569 0.172400
vt 0.253512 0.039103
vt 0.136603 0.010352
vt 0.495312 0.092724
vt 0.465852 0.002869
vt 0.664567 0.061469
vt 0.715484 0.040912
vt 0.210409 0.364154
vt 0.190220 0.411148
vt 0.438923 0.406642
vt 0.389808 0.336132
vt 0.742226 0.214589
vt 0.698620 0.201154
vt 0.578773 0.313995
vt 0.016472 0.328344
vt 0.081169 0.304787
vt 0.258353 0.258575
vt 0.135058 0.210267
vt 0.178271 0.207629
vt 0.178917 0.087090
vt 0.118704 0.112451
vt 0.253792 0.038868
vt 0.495395 0.092655
vt 0.664678 0.061375
vt 0.210488 0.364088
vt 0.389928 0.336031
vt 0.698902 0.200917
vt 0.081302 0.304674
vt 0.137365 0.211620
vt 0.259458 0.259503
vt 0.178364 0.207401
vt 0.118731 0.112929
vt 0.179206 0.086627
s 1
usemtl c_deer
f 203/193/268 204/194/269 205/195/270
f 204/194/269 206/196/271 207/197/272
f 207/197/272 205/195/270 204/194/269
f 206/196/271 208/198/273 209/199/274
f 209/199/274 207/197/272 206/196/271
f 210/200/275 211/201/276 212/202/277
f 212/202/277 213/203/278 210/200/275
f 214/204/279 215/205/280 216/206/281
f 217/207/282 218/208/283 203/193/268
f 218/208/283 217/207/282 211/201/276
f 211/201/276 210/200/275 218/208/283
f 209/199/274 208/198/273 215/205/280
f 215/205/280 214/204/279 209/199/274
f 204/194/269 203/193/268 218/208/283
f 215/205/280 206/196/271 216/206/281
f 206/196/271 215/205/280 208/198/273
f 204/194/269 213/203/278 206/196/271
f 204/194/269 218/208/283 210/200/275
f 210/200/275 213/203/278 204/194/269
f 213/203/278 212/202/277 216/206/281
f 216/206/281 206/196/271 213/203/278
f 219/209/284 220/210/285 221/211/286
f 222/212/287 223/213/288 220/210/285
f 220/210/285 219/209/289 222/212/287
f 221/211/286 220/210/285 223/213/288
f 221/211/290 222/212/291 219/209/292
f 222/212/291 221/211/290 223/213/293
f 224/214/294 203/193/268 205/195/270
f 225/215/295 224/214/294 207/197/272
f 205/195/270 207/197/272 224/214/294
f 226/216/296 225/215/295 209/199/274
f 207/197/272 209/199/274 225/215/295
f 211/201/276 227/217/297 212/202/277
f 228/218/298 212/202/277 227/217/297
f 229/219/299 214/204/279 216/206/281
f 230/220/300 217/207/282 203/193/268
f 217/207/282 230/220/300 211/201/276
f 227/217/297 211/201/276 230/220/300
f 226/216/296 209/199/274 229/219/299
f 214/204/279 229/219/299 209/199/274
f 203/193/268 224/214/294 230/220/300
f 225/215/295 229/219/299 216/206/281
f 229/219/299 225/215/295 226/216/296
f 228/218/298 224/214/294 225/215/295
f 230/220/300 224/214/294 227/217/297
f 228/218/298 227/217/297 224/214/294
f 212/202/277 228/218/298 216/206/281
f 225/215/295 216/206/281 228/218/298
f 231/221/301 232/222/302 233/223/303
f 234/224/304 235/225/305 231/221/301
f 232/222/306 231/221/301 235/225/305
f 231/221/301 233/223/303 234/224/304
f 235/225/307 233/223/308 232/222/309
f 233/223/308 235/225/307 234/224/310
o Deer_Lhorn
v -0.014278 1.641470 -0.609666
v -0.280875 1.933457 -0.430300
v -0.060823 1.624523 -0.608447
v -0.234436 1.938084 -0.429784
v -0.184770 2.310943 -0.433732
v -0.038795 1.632997 -0.656577
v -0.256654 1.951541 -0.462053
v -0.080986 1.724772 -0.578487
v -0.105032 1.744954 -0.594054
v -0.026466 2.003164 -0.670997
v -0.104185 1.744954 -0.561683
v -0.340986 2.166450 -0.340171
vn 0.1596 -0.4068 0.8995
vn 0.0527 -0.4873 0.8716
vn 0.1690 -0.3993 0.9011
vn 0.0398 -0.4964 0.8672
vn -0.0123 0.0122 0.9998
vn 0.6050 0.6744 -0.4233
vn 0.5978 0.6739 -0.4341
vn 0.7078 0.6657 -0.2362
vn 0.7164 0.6632 -0.2167
vn 0.7959 -0.1123 -0.5949
vn -0.8280 -0.3206 -0.4601
vn -0.8316 -0.3385 -0.4402
vn -0.7635 -0.1404 -0.6304
vn -0.7544 -0.1221 -0.6450
vn -0.8311 0.2069 -0.5161
vn 0.2824 -0.3519 -0.8924
vn -0.9543 0.2978 0.0250
vn 0.6497 0.1221 0.7503
vn 0.0250 -0.3551 0.9345
vn 0.7953 0.5035 -0.3376
vn -0.8015 0.0244 -0.5975
vt 0.763678 0.372555
vt 0.941694 0.170081
vt 0.982221 0.372988
vt 0.827942 0.159315
vt 0.883605 -0.002049
vt 0.869655 0.375024
vt 0.870085 0.202833
vt 0.793571 0.321418
vt 0.972241 0.339859
vt 0.883752 0.003264
vt 0.873714 0.344926
vt 0.789148 0.345088
vt 0.884642 0.000288
vt 0.969774 0.349835
vt 0.873460 0.148985
s 1
usemtl c_deer
f 236/226/311 237/227/312 238/228/313
f 237/227/312 236/226/311 239/229/314
f 239/229/315 240/230/315 237/227/315
f 236/226/316 241/231/317 242/232/318
f 242/232/318 239/229/319 236/226/316
f 242/232/320 240/230/320 239/229/320
f 241/231/321 238/228/322 237/227/323
f 237/227/323 242/232/324 241/231/321
f 242/232/325 237/227/325 240/230/325
f 243/233/326 244/234/326 245/235/326
f 244/234/327 246/236/327 245/235/327
f 246/236/328 243/233/328 245/235/328
f 237/237/329 239/238/329 247/239/329
f 239/238/330 242/240/330 247/239/330
f 242/240/331 237/237/331 247/239/331
o Deer_Rhorn
v 0.017423 1.640363 -0.610496
v 0.312742 1.912720 -0.445845
v 0.062672 1.620209 -0.611681
v 0.266829 1.920573 -0.442910
v 0.243146 2.295995 -0.444937
v 0.038803 1.630286 -0.658609
v 0.288215 1.932507 -0.476321
v 0.091315 1.718753 -0.582999
v 0.115864 1.737237 -0.599839
v 0.051580 2.000437 -0.673040
v 0.116711 1.737237 -0.567467
v 0.393582 2.140790 -0.359406
vn 0.1404 0.3963 -0.9073
vn 0.0410 0.4840 -0.8741
vn 0.1491 0.3882 -0.9095
vn 0.0289 0.4940 -0.8690
vn -0.0654 -0.0095 -0.9978
vn 0.5778 -0.7157 0.3923
vn 0.5712 -0.7148 0.4035
vn 0.6711 -0.7139 0.2001
vn 0.6788 -0.7119 0.1802
vn 0.8318 0.0555 0.5522
vn -0.7784 0.3767 0.5022
vn -0.7819 0.3949 0.4825
vn -0.7179 0.1922 0.6691
vn -0.7093 0.1732 0.6833
vn -0.8154 -0.1494 0.5593
vn 0.3525 0.3297 0.8758
vn -0.9727 -0.2305 0.0255
vn 0.5995 -0.1657 -0.7830
vn 0.0008 0.3542 -0.9352
vn 0.7748 -0.5584 0.2965
vn -0.7689 0.0305 0.6386
vt 0.763678 0.372555
vt 0.941694 0.170081
vt 0.982221 0.372988
vt 0.827942 0.159315
vt 0.883605 -0.002049
vt 0.869655 0.375024
vt 0.870085 0.202833
vt 0.793571 0.321418
vt 0.972241 0.339859
vt 0.883752 0.003264
vt 0.873714 0.344926
vt 0.789148 0.345088
vt 0.884642 0.000288
vt 0.969774 0.349835
vt 0.873460 0.148985
s 1
usemtl c_deer
f 248/241/332 249/242/333 250/243/334
f 249/242/333 248/241/332 251/244/335
f 251/244/336 252/245/336 249/242/336
f 248/241/337 253/246/338 254/247/339
f 254/247/339 251/244/340 248/241/337
f 254/247/341 252/245/341 251/244/341
f 253/246/342 250/243/343 249/242/344
f 249/242/344 254/247/345 253/246/342
f 254/247/346 249/242/346 252/245/346
f 255/248/347 256/249/347 257/250/347
f 256/249/348 258/251/348 257/250/348
f 258/251/349 255/248/349 257/250/349
f 249/252/350 251/253/350 259/254/350
f 251/253/351 254/255/351 259/254/351
f 254/255/352 249/252/352 259/254/352
